<svg width="41" height="41" viewBox="0 0 41 41" fill="none" xmlns="http://www.w3.org/2000/svg">
<path d="M35.6615 7.03848H5.34107C3.59138 7.03848 2.16797 8.46197 2.16797 10.2116V28.5449C2.16797 30.2945 3.59138 31.718 5.34107 31.718H35.6616C37.4112 31.718 38.8346 30.2945 38.8346 28.5449V10.2116C38.8346 8.46197 37.4112 7.03848 35.6615 7.03848ZM36.7193 28.5449C36.7193 29.1281 36.2448 29.6026 35.6616 29.6026H5.34107C4.75784 29.6026 4.28339 29.1281 4.28339 28.5449V14.7949H36.7193V28.5449ZM36.7193 12.6796H4.28332V10.2116C4.28332 9.62835 4.75777 9.15391 5.341 9.15391H35.6615C36.2448 9.15391 36.7192 9.62835 36.7192 10.2116V12.6796H36.7193Z" fill="#487791"/>
<path d="M12.7436 17.6154H9.92303C8.17341 17.6154 6.75 19.0389 6.75 20.7885V23.609C6.75 25.3586 8.17341 26.7821 9.9231 26.7821H12.7436C14.4933 26.7821 15.9167 25.3587 15.9167 23.609V20.7885C15.9167 19.0389 14.4933 17.6154 12.7436 17.6154ZM13.8013 23.609C13.8013 24.1922 13.3269 24.6667 12.7436 24.6667H9.9231C9.33987 24.6667 8.86542 24.1922 8.86542 23.609V20.7885C8.86542 20.2052 9.33987 19.7308 9.9231 19.7308H12.7436C13.3269 19.7308 13.8013 20.2052 13.8013 20.7885V23.609ZM27.5513 17.6154H19.0898C18.5056 17.6154 18.0321 18.089 18.0321 18.6731C18.0321 19.2572 18.5057 19.7308 19.0898 19.7308H27.5513C28.1355 19.7308 28.609 19.2572 28.609 18.6731C28.609 18.089 28.1354 17.6154 27.5513 17.6154ZM33.1923 21.141H19.0898C18.5056 21.141 18.0321 21.6146 18.0321 22.1987C18.0321 22.7828 18.5057 23.2564 19.0898 23.2564H33.1923C33.7765 23.2564 34.25 22.7828 34.25 22.1987C34.25 21.6146 33.7764 21.141 33.1923 21.141ZM33.1923 24.6667H19.0898C18.5056 24.6667 18.0321 25.1403 18.0321 25.7244C18.0321 26.3085 18.5057 26.782 19.0898 26.782H33.1923C33.7765 26.782 34.25 26.3085 34.25 25.7244C34.25 25.1403 33.7764 24.6667 33.1923 24.6667Z" fill="#487791"/>
</svg>
