<svg width="256" height="73" viewBox="0 0 256 73" fill="none" xmlns="http://www.w3.org/2000/svg">
<path d="M22.7325 13.9666C22.4676 14.0545 22.1903 14.0994 21.9111 14.0997C21.6079 14.1255 21.3048 14.0484 21.051 13.8808C20.8973 13.7368 20.7795 13.559 20.707 13.3614C20.039 11.7132 19.1789 10.5286 18.1267 9.80756C17.0745 9.08649 15.674 8.72595 13.9251 8.72595C12.6624 8.69045 11.4206 9.05398 10.3772 9.76464C9.42248 10.4299 8.94943 11.4557 8.94943 12.8421C8.93451 13.3234 9.02314 13.8023 9.20934 14.2465C9.39554 14.6908 9.67499 15.09 10.0289 15.4173C10.8694 16.108 11.8032 16.6773 12.8027 17.1084C13.9251 17.602 15.1249 18.0784 16.3936 18.5377C17.6521 18.975 18.858 19.5508 19.9888 20.2545C21.0914 20.9273 22.0359 21.829 22.7583 22.8985C23.5472 24.1314 23.9306 25.5794 23.8549 27.0403C23.8559 28.1333 23.6668 29.2181 23.2959 30.2465C22.916 31.303 22.3031 32.2609 21.5026 33.0493C20.613 33.881 19.5683 34.53 18.4277 34.9593C16.9976 35.44 15.4938 35.6652 13.9853 35.6245C12.2647 35.6479 10.5485 35.4459 8.88062 35.0236C7.6019 34.6725 6.35702 34.2086 5.16069 33.6373C5.07468 32.3926 4.92846 31.1822 4.73064 29.9976C4.53281 28.813 4.35649 27.6155 4.12427 26.4867C4.44291 26.3668 4.78151 26.3085 5.12198 26.315C5.3985 26.2946 5.67355 26.3704 5.90037 26.5296C6.10793 26.6974 6.2582 26.9253 6.33042 27.182C6.65447 28.1741 7.07356 29.1329 7.58187 30.0448C8.00328 30.7783 8.54391 31.4368 9.18165 31.9934C9.79472 32.4897 10.5009 32.8589 11.2588 33.0793C12.1633 33.3198 13.0966 33.4353 14.0326 33.4227C14.8107 33.4398 15.586 33.3237 16.3248 33.0793C16.9059 32.8539 17.4354 32.5138 17.8816 32.0793C18.2873 31.6741 18.5986 31.1846 18.7933 30.6457C18.9934 30.1058 19.0953 29.5346 19.0943 28.9589C19.1251 28.4264 19.0451 27.8934 18.8593 27.3933C18.6736 26.8932 18.386 26.4369 18.0149 26.0532C17.2628 25.2914 16.3648 24.6885 15.3744 24.2805C14.2578 23.759 13.1086 23.3103 11.934 22.9371C10.7452 22.5131 9.60026 21.9756 8.51507 21.3318C7.48235 20.6708 6.58603 19.8185 5.87457 18.821C5.18219 17.7823 4.83815 16.3916 4.83815 14.6619C4.82734 13.5638 5.03339 12.4743 5.44452 11.4557C5.86507 10.461 6.5027 9.57237 7.31094 8.85471C8.15509 8.08166 9.1407 7.47834 10.2138 7.07778C11.4801 6.62807 12.8178 6.41138 14.1616 6.43826C15.3834 6.43867 16.6017 6.56961 17.7955 6.82884C19.2294 7.14125 20.6347 7.57194 21.9971 8.11647C22.0545 8.97489 22.1405 9.95635 22.2552 11.0609C22.4014 12.1339 22.5562 13.0996 22.7325 13.9666ZM47.5507 9.11653V31.9033C47.5495 32.15 47.5639 32.3966 47.5937 32.6415C47.6649 32.8286 47.7852 32.9932 47.942 33.1179C48.163 33.288 48.4118 33.4187 48.6774 33.5042C49.119 33.6183 49.5671 33.7057 50.0192 33.766C50.2029 33.7793 50.374 33.8641 50.4955 34.0023C50.617 34.1404 50.6792 34.3208 50.6685 34.5043C50.6647 34.634 50.6503 34.7632 50.6255 34.8906C50.6289 35.0349 50.6145 35.179 50.5825 35.3198C49.6579 35.264 48.6645 35.2039 47.5722 35.1481C46.4799 35.0923 45.6112 35.1052 44.8027 35.1052C43.9942 35.1052 43.0309 35.1052 41.9901 35.1481L39.1346 35.3241C39.0685 35.1886 39.0235 35.0439 39.0013 34.8949V34.5086C38.9936 34.3449 39.0246 34.1817 39.0916 34.0322C39.1662 33.9435 39.258 33.8707 39.3614 33.8184C39.4649 33.766 39.5779 33.7351 39.6937 33.7274C40.7645 33.5815 41.4139 33.3969 41.6848 33.1652C41.8423 32.9983 41.9622 32.7998 42.0363 32.5829C42.1105 32.3659 42.1373 32.1357 42.1149 31.9076V9.11653H38.2745C37.5733 9.10249 36.8738 9.18923 36.1974 9.37406C35.6607 9.51449 35.1596 9.76601 34.7266 10.1123C34.2812 10.4752 33.9002 10.9105 33.5999 11.3999C33.2358 12.0154 32.9084 12.6517 32.6194 13.3056C32.5658 13.4304 32.4742 13.5352 32.3577 13.6053C32.2412 13.6754 32.1056 13.7072 31.97 13.6962C31.7652 13.6917 31.5616 13.6629 31.3636 13.6104C31.1314 13.5202 30.9594 13.4515 30.8433 13.3915C31.0454 12.7004 31.2174 12.1038 31.3636 11.5716C31.5098 11.0394 31.6216 10.49 31.7077 9.97066C31.8238 9.30538 31.9098 8.71307 31.97 8.19373C31.9993 7.81063 32.0714 7.432 32.185 7.06491C32.2459 6.93667 32.3453 6.83056 32.4693 6.76132C32.5934 6.69209 32.7361 6.66318 32.8774 6.67862C33.1956 6.67862 33.8149 6.72154 34.7395 6.80738C35.6641 6.89322 36.8295 6.93614 38.1799 6.93614H51.5114C52.8016 6.93614 53.924 6.89322 54.8443 6.80738C55.7646 6.72154 56.4484 6.67862 56.7925 6.67862C56.9329 6.66968 57.0729 6.70138 57.1957 6.7699C57.3185 6.83842 57.4189 6.94085 57.4848 7.06491C57.5963 7.43107 57.6557 7.81107 57.6612 8.19373C57.7315 8.79071 57.832 9.38377 57.9622 9.97066C58.0482 10.49 58.1514 11.0222 58.2675 11.5716C58.3836 12.121 58.5987 12.7004 58.8309 13.3915L58.2675 13.6104C58.0844 13.6638 57.8949 13.6927 57.7042 13.6962C57.5634 13.7042 57.4233 13.6716 57.3005 13.6024C57.1777 13.5331 57.0775 13.4301 57.0118 13.3056C56.7144 12.6447 56.3665 12.0075 55.9711 11.3999C55.689 10.8974 55.3053 10.4589 54.8443 10.1123C54.4194 9.75371 53.9154 9.50072 53.3736 9.37406C52.7266 9.18889 52.0553 9.10207 51.3824 9.11653H47.5507ZM77.6241 25.5767H68.5328L66.2837 31.5857C66.1948 31.7317 66.1349 31.8935 66.1073 32.0621C66.0849 32.1913 66.0705 32.3217 66.0643 32.4527C66.0641 32.6085 66.1034 32.7619 66.1786 32.8985C66.2538 33.0351 66.3624 33.1505 66.4944 33.2338C67.0853 33.5221 67.7233 33.7024 68.378 33.766C68.7822 33.8261 68.9844 34.0965 68.9844 34.5901C68.9786 34.8369 68.9498 35.0826 68.8984 35.3241C68.1157 35.2683 67.2943 35.2082 66.4299 35.1524C65.5655 35.0966 64.7097 35.1095 63.8754 35.1095C63.2991 35.1095 62.6927 35.1095 62.0563 35.1524C61.4198 35.1953 60.7145 35.2382 59.9361 35.3241C59.8764 35.2042 59.8469 35.0716 59.8501 34.9378V34.5901C59.8501 34.0407 60.035 33.7317 60.4135 33.7317C61.07 33.6327 61.7097 33.4435 62.3143 33.1694C62.7419 32.942 63.0788 32.5755 63.269 32.1308L73.6848 7.16792C73.7622 6.95517 73.903 6.77117 74.0883 6.64072C74.2736 6.51026 74.4945 6.4396 74.7212 6.43826C74.8657 6.43794 75.0098 6.45232 75.1513 6.48118C75.3113 6.4817 75.4711 6.49606 75.6286 6.5241L86.0616 32.2767C86.2494 32.7256 86.6061 33.0831 87.0551 33.2725C87.5702 33.4803 88.1089 33.6245 88.6591 33.7017C88.8579 33.7325 89.0369 33.8393 89.1581 33.9996C89.2793 34.1598 89.3333 34.3608 89.3085 34.5601C89.3051 34.8214 89.2748 35.0818 89.2182 35.337L86.4917 35.1653C85.5972 35.1352 84.7715 35.1224 83.9845 35.1224H82.5094L80.7376 35.2082C80.1313 35.2382 79.5249 35.2511 78.9185 35.2511L77.4477 35.337C77.3867 35.2174 77.3558 35.0848 77.3574 34.9507V34.603C77.3401 34.4062 77.3869 34.209 77.4908 34.0407C77.5731 33.9177 77.6941 33.8256 77.8348 33.7789C78.4014 33.6884 78.9546 33.5284 79.4819 33.3025C79.6482 33.2287 79.7896 33.1083 79.8888 32.9559C79.988 32.8036 80.0409 32.6258 80.0409 32.4441C80.0317 32.2227 79.9882 32.0041 79.9119 31.796L77.6241 25.5767ZM76.7984 23.4307L73.1085 13.6662L69.3413 23.4135L76.7984 23.4307ZM100.993 23.2547L94.1122 10.1295C93.8584 9.58081 93.4287 9.13225 92.8908 8.85471C92.316 8.59011 91.704 8.41496 91.076 8.33537C90.7277 8.30532 90.5557 8.01775 90.5557 7.47695V7.29668C90.5553 7.20763 90.5698 7.11913 90.5987 7.03486L90.6417 6.73442C91.2781 6.79021 92.0866 6.8503 93.0672 6.9061C94.0477 6.9619 95.1744 6.94902 96.357 6.94902H97.7848C98.3611 6.91898 98.9373 6.9061 99.505 6.9061L101.105 6.82026C101.625 6.79021 102.042 6.76017 102.361 6.73442C102.407 6.91879 102.435 7.10701 102.447 7.29668V7.51129C102.447 8.00488 102.275 8.27957 101.926 8.33537C101.387 8.36587 100.859 8.49842 100.369 8.72595C100.246 8.77328 100.139 8.85598 100.063 8.96366C99.9862 9.07134 99.9433 9.19918 99.9393 9.33114C99.9686 9.65407 100.073 9.96569 100.245 10.2411L105.319 20.2932L110.299 10.9364C110.573 10.522 110.737 10.045 110.777 9.55003C110.784 9.39267 110.742 9.2369 110.657 9.10452C110.571 8.97215 110.446 8.8698 110.299 8.81179C109.775 8.57709 109.221 8.41673 108.652 8.33537C108.278 8.27957 108.093 8.00488 108.093 7.51129C108.116 7.24938 108.159 6.98963 108.222 6.73442C108.828 6.79021 109.577 6.8503 110.471 6.9061C111.366 6.9619 112.191 6.94902 112.897 6.94902C113.602 6.94902 114.251 6.94902 114.974 6.9061C115.696 6.86318 116.475 6.82026 117.223 6.73442C117.278 6.90237 117.308 7.07724 117.313 7.25376V7.51129C117.313 8.03063 117.137 8.30532 116.793 8.33537C116.05 8.40103 115.323 8.59111 114.643 8.89763C114.208 9.16301 113.851 9.53741 113.606 9.98353L106.446 23.1517V31.7616C106.437 32.0266 106.481 32.2907 106.575 32.5385C106.675 32.7588 106.842 32.942 107.052 33.0621C107.331 33.2364 107.63 33.3762 107.943 33.4785C108.347 33.5686 108.867 33.6545 109.504 33.7403C109.642 33.7674 109.765 33.8456 109.848 33.9592C109.964 34.045 110.024 34.2468 110.024 34.5644C110.02 34.638 110.004 34.7104 109.977 34.779V34.9979L109.934 35.2983C109.474 35.2983 109.039 35.2983 108.644 35.2554C108.248 35.2125 107.835 35.2554 107.435 35.2125C106.738 35.1567 106.02 35.1266 105.285 35.1266C104.549 35.1266 103.96 35.0837 103.466 35.0837C102.971 35.0837 102.343 35.0837 101.651 35.1266C100.959 35.1696 100.335 35.1567 99.7028 35.2125C99.3244 35.2425 98.9502 35.2554 98.5761 35.2554C98.2019 35.2554 97.8708 35.2983 97.4924 35.2983L97.4494 34.9979C97.4255 34.9271 97.4111 34.8535 97.4064 34.779V34.5644C97.379 34.3539 97.4245 34.1404 97.5354 33.9592C97.6416 33.8497 97.7777 33.7736 97.9267 33.7403C98.5331 33.6244 99.0362 33.5214 99.4405 33.4356C99.7675 33.3471 100.087 33.2323 100.395 33.0922C100.604 32.9707 100.771 32.7879 100.873 32.5686C100.967 32.3207 101.011 32.0566 101.002 31.7917L100.993 23.2547ZM133.371 31.444C133.371 32.0492 133.758 32.457 134.537 32.6587C135.812 32.9043 137.11 33.0051 138.407 32.9591H140.054C140.682 32.9697 141.308 32.8976 141.917 32.7445C142.448 32.5795 142.936 32.298 143.344 31.9204C143.776 31.4989 144.136 31.0105 144.411 30.474C144.795 29.7845 145.127 29.0671 145.404 28.328C145.49 28.0962 145.71 27.9846 146.054 27.9846C146.234 27.9928 146.411 28.0366 146.574 28.1134L147.18 28.3709C146.948 29.298 146.75 30.3066 146.531 31.4054C146.312 32.5042 146.2 33.5257 146.054 34.5687C146.023 34.912 145.925 35.1309 145.753 35.2168C145.608 35.3022 145.443 35.3467 145.275 35.3455C145.043 35.3455 144.712 35.3455 144.277 35.3026L142.936 35.2168C142.445 35.2168 141.942 35.2168 141.422 35.1739C140.902 35.1309 140.497 35.1309 140.132 35.1309H130.305C129.445 35.1309 128.503 35.1309 127.407 35.1739C126.31 35.2168 125.372 35.2897 124.504 35.3455C124.443 35.2107 124.414 35.064 124.418 34.9163V34.4871C124.418 34.0579 124.564 33.8218 124.848 33.7918C125.65 33.674 126.435 33.4562 127.183 33.1437C127.417 33.0418 127.613 32.8705 127.745 32.6531C127.878 32.4357 127.94 32.1829 127.923 31.929V10.1981C127.93 9.96442 127.9 9.731 127.832 9.50711C127.774 9.30163 127.654 9.11892 127.488 8.98348C127.243 8.80962 126.963 8.69233 126.667 8.64011C126.199 8.49743 125.72 8.39547 125.235 8.33537C124.947 8.24953 124.805 8.00488 124.805 7.60142V7.21084C124.801 7.04787 124.83 6.88582 124.891 6.73442C125.815 6.79021 126.796 6.8503 127.832 6.9061C128.869 6.9619 129.798 6.94902 130.606 6.94902H131.991C132.507 6.91898 133.045 6.9061 133.591 6.9061L135.281 6.82026L136.838 6.73442C136.868 6.89131 136.883 7.05097 136.881 7.21084C136.906 7.33964 136.92 7.47027 136.924 7.60142C136.924 8.00488 136.782 8.24953 136.494 8.33537C135.235 8.50133 134.396 8.72738 133.978 9.01352C133.769 9.15277 133.602 9.34627 133.495 9.57317C133.388 9.80007 133.346 10.0518 133.371 10.3011V31.444ZM178.282 24.4093C178.295 25.9414 178.121 27.4694 177.761 28.9589C177.441 30.267 176.82 31.4825 175.946 32.5085C175.014 33.554 173.83 34.3444 172.506 34.8047C170.788 35.4011 168.975 35.6789 167.156 35.6245C164.576 35.6245 162.499 35.3384 160.925 34.7661C159.536 34.3012 158.285 33.4971 157.286 32.4269C156.449 31.4108 155.871 30.2077 155.601 28.9203C155.304 27.4945 155.16 26.0414 155.171 24.5853V10.1981C155.197 9.95749 155.159 9.7142 155.06 9.49321C154.961 9.27222 154.804 9.08148 154.607 8.94055C154.232 8.68303 153.468 8.4813 152.315 8.33537C151.997 8.27814 151.838 8.00345 151.838 7.51129V7.16792C151.839 7.02075 151.869 6.87517 151.924 6.73871C152.762 6.79451 153.644 6.85459 154.564 6.91039C155.485 6.96619 156.641 6.95331 157.94 6.95331C158.952 6.95331 160.006 6.93901 161.101 6.91039C162.198 6.85459 163.178 6.79451 164.043 6.73871C164.073 6.87977 164.089 7.0236 164.09 7.16792C164.114 7.28101 164.128 7.39585 164.133 7.51129C164.133 8.00345 163.974 8.27814 163.656 8.33537C162.817 8.38863 161.995 8.5937 161.23 8.94055C161.027 9.07825 160.864 9.26709 160.757 9.48793C160.651 9.70877 160.605 9.95378 160.624 10.1981V23.6281C160.624 26.6326 161.173 28.9217 162.271 30.4955C163.369 32.0692 165.287 32.849 168.025 32.8347C170.8 32.8347 172.763 32.1193 173.912 30.6886C175.062 29.2579 175.654 26.8758 175.688 23.5423V10.2368C175.707 9.99241 175.661 9.7474 175.555 9.52656C175.448 9.30572 175.285 9.11688 175.082 8.97918C174.364 8.63209 173.586 8.42661 172.79 8.374C172.441 8.28816 172.269 8.01346 172.269 7.54991V7.20655C172.299 7.06062 172.325 6.91468 172.355 6.77734C173.216 6.86318 173.955 6.91898 174.652 6.94902C175.349 6.97907 176.136 6.99194 176.944 6.99194C177.869 6.99194 178.69 6.99194 179.413 6.94902C180.135 6.9061 180.84 6.86318 181.533 6.77734C181.562 6.91854 181.576 7.06238 181.576 7.20655C181.602 7.31927 181.616 7.43431 181.619 7.54991C181.619 8.01346 181.447 8.28816 181.098 8.374C180.332 8.39182 179.58 8.58569 178.901 8.94055C178.698 9.07825 178.535 9.26709 178.428 9.48793C178.322 9.70877 178.275 9.95378 178.294 10.1981L178.282 24.4093ZM213.773 31.9891C214.066 32.4589 214.487 32.8356 214.986 33.075C215.757 33.3402 216.557 33.5145 217.369 33.5944C217.552 33.6352 217.714 33.7406 217.825 33.8912C217.937 34.0418 217.99 34.2275 217.975 34.4142C217.968 34.5579 217.954 34.7011 217.932 34.8434C217.936 35.0035 217.92 35.1635 217.885 35.3198L216.242 35.2339L214.466 35.1481C213.89 35.1481 213.326 35.1481 212.78 35.1052H211.395C210.472 35.1052 209.39 35.1195 208.148 35.1481C206.907 35.1767 205.752 35.2339 204.682 35.3198C204.624 35.1995 204.594 35.0672 204.596 34.9335V34.5858C204.577 34.3757 204.622 34.1648 204.725 33.9807C204.831 33.8703 204.967 33.7941 205.117 33.7618C205.706 33.6672 206.283 33.5074 206.837 33.2853C206.995 33.2344 207.133 33.1362 207.233 33.0041C207.333 32.8721 207.39 32.7125 207.396 32.5471C207.365 32.211 207.23 31.8929 207.009 31.6372L201.521 23.0229L196.103 30.9032C195.899 31.1788 195.711 31.4654 195.539 31.7616C195.433 31.9922 195.374 32.2418 195.367 32.4956C195.373 32.6612 195.425 32.8219 195.516 32.9599C195.608 33.0978 195.737 33.2076 195.888 33.2768C196.429 33.5063 196.997 33.6664 197.578 33.7532C197.726 33.7865 197.86 33.8627 197.965 33.9721C198.081 34.0579 198.137 34.2596 198.137 34.5773V34.9249C198.14 35.0587 198.111 35.1913 198.051 35.3112C197.303 35.2554 196.464 35.1953 195.539 35.1395C194.615 35.0837 193.854 35.0966 193.161 35.0966C192.469 35.0966 191.716 35.0966 190.908 35.1395C190.099 35.1824 189.295 35.2254 188.487 35.3112C188.427 35.1913 188.397 35.0587 188.401 34.9249V34.5343C188.401 34.0407 188.585 33.7703 188.96 33.7103C189.648 33.5979 190.317 33.3838 190.942 33.075C191.461 32.8532 191.907 32.4921 192.232 32.032L199.939 20.8726L192.692 9.80756C192.416 9.38913 192.025 9.0585 191.566 8.85471C190.848 8.57113 190.088 8.41007 189.317 8.37829C188.912 8.34825 188.71 8.06067 188.71 7.51987V7.1765C188.712 7.02933 188.741 6.88376 188.796 6.74729L190.267 6.83313L191.957 6.91898C192.533 6.91898 193.067 6.91898 193.557 6.9619H196.24C196.821 6.93185 197.427 6.91898 198.059 6.91898L200.008 6.83313L201.728 6.74729C201.757 6.8885 201.771 7.03233 201.771 7.1765C201.797 7.28922 201.811 7.40426 201.814 7.51987C201.814 8.03921 201.642 8.31391 201.293 8.34395C199.86 8.46127 199.143 8.77889 199.143 9.2968C199.176 9.64536 199.311 9.97664 199.53 10.2496L204.261 17.8338L209.142 10.7304C209.285 10.5222 209.416 10.3058 209.533 10.0823C209.639 9.91303 209.698 9.71918 209.705 9.51999C209.705 8.9706 208.988 8.58002 207.555 8.34825C207.177 8.3182 206.992 8.04351 206.992 7.52416V7.18079C207.022 7.03486 207.048 6.88893 207.078 6.75158C207.938 6.83743 208.818 6.89465 209.718 6.92327C210.643 6.95331 211.438 6.96619 212.058 6.96619C212.892 6.96619 213.688 6.96619 214.436 6.92327C215.184 6.88035 215.894 6.83743 216.556 6.75158C216.587 6.90848 216.601 7.06814 216.599 7.22801C216.625 7.34073 216.639 7.45577 216.642 7.57137C216.656 7.78817 216.595 8.0032 216.47 8.18085C216.365 8.28908 216.23 8.36378 216.083 8.39546C215.379 8.4469 214.691 8.62275 214.049 8.9148C213.526 9.15075 213.08 9.52664 212.759 10.0007L205.744 19.8725L213.773 31.9891ZM248.608 31.9891C248.9 32.4589 249.321 32.8356 249.82 33.075C250.59 33.3403 251.388 33.5146 252.198 33.5944C252.348 33.6231 252.485 33.6982 252.59 33.809C252.669 33.8874 252.729 33.9824 252.766 34.0872C252.803 34.1919 252.817 34.3037 252.805 34.4142C252.8 34.558 252.786 34.7014 252.762 34.8434C252.767 35.0033 252.752 35.1633 252.719 35.3198L251.076 35.2339L249.3 35.1481C248.724 35.1481 248.16 35.1481 247.61 35.1052H246.225C245.3 35.1052 244.221 35.1052 242.978 35.1481C241.735 35.191 240.613 35.2339 239.538 35.3198C239.479 35.1995 239.45 35.0672 239.452 34.9335V34.5858C239.433 34.3757 239.478 34.1648 239.581 33.9807C239.686 33.8703 239.823 33.7941 239.972 33.7618C240.562 33.6682 241.139 33.5084 241.692 33.2853C241.851 33.2346 241.989 33.1366 242.09 33.0046C242.191 32.8725 242.249 32.7129 242.256 32.5471C242.225 32.211 242.089 31.8929 241.869 31.6372L236.351 23.0229L230.937 30.9032C230.732 31.1778 230.544 31.4645 230.373 31.7616C230.265 31.9915 230.206 32.2416 230.201 32.4956C230.207 32.6612 230.259 32.8219 230.35 32.9599C230.442 33.0978 230.571 33.2076 230.722 33.2768C231.261 33.5059 231.828 33.6659 232.408 33.7532C232.557 33.7855 232.693 33.8617 232.799 33.9721C232.915 34.0579 232.971 34.2596 232.971 34.5773V34.9249C232.973 35.0586 232.943 35.1909 232.885 35.3112C232.132 35.2554 231.298 35.1953 230.373 35.1395C229.449 35.0837 228.688 35.0966 227.995 35.0966C227.303 35.0966 226.55 35.0966 225.742 35.1395C224.933 35.1824 224.125 35.2254 223.316 35.3112C223.258 35.1909 223.228 35.0586 223.23 34.9249V34.5343C223.23 34.0407 223.42 33.7703 223.794 33.7103C224.482 33.5972 225.15 33.3831 225.776 33.075C226.294 32.852 226.74 32.4912 227.066 32.032L234.773 20.8726L227.522 9.80756C227.244 9.39008 226.854 9.05971 226.395 8.85471C225.678 8.57191 224.917 8.41088 224.146 8.37829C223.742 8.34825 223.54 8.06067 223.54 7.51987V7.1765C223.539 7.02912 223.569 6.88316 223.626 6.74729L225.097 6.83313L226.787 6.91898C227.363 6.91898 227.896 6.91898 228.387 6.9619H231.07C231.646 6.93185 232.253 6.91898 232.889 6.91898L234.837 6.83313L236.558 6.74729C236.585 6.88881 236.599 7.03244 236.601 7.1765C236.624 7.28959 236.639 7.40443 236.644 7.51987C236.644 8.03921 236.467 8.31391 236.123 8.34395C234.678 8.45984 233.973 8.77316 233.973 9.2968C234.006 9.64536 234.14 9.97664 234.36 10.2496L239.091 17.8338L243.972 10.7304C244.113 10.5223 244.243 10.3058 244.359 10.0823C244.465 9.91329 244.526 9.71951 244.535 9.51999C244.535 8.9706 243.818 8.58002 242.385 8.34825C242.011 8.3182 241.821 8.04351 241.821 7.52416V7.18079L241.912 6.75158C242.772 6.83743 243.652 6.89465 244.552 6.92327C245.472 6.95331 246.272 6.96619 246.887 6.96619C247.747 6.96619 248.517 6.96619 249.27 6.92327C250.022 6.88035 250.728 6.83743 251.39 6.75158C251.421 6.90848 251.435 7.06814 251.433 7.22801C251.459 7.34073 251.473 7.45577 251.476 7.57137C251.49 7.78817 251.429 8.0032 251.304 8.18085C251.198 8.29004 251.062 8.36483 250.913 8.39546C250.209 8.44833 249.521 8.62411 248.878 8.9148C248.357 9.15208 247.911 9.52769 247.588 10.0007L240.578 19.8725L248.608 31.9891Z" fill="#0A3647"/>
<path d="M6.76461 63.287C6.46303 63.291 6.16491 63.2225 5.89545 63.0873C5.62598 62.9521 5.39308 62.7541 5.21643 62.5101C5.02908 62.2025 4.93221 61.8485 4.93689 61.4886C4.67411 61.5088 4.41098 61.4542 4.17805 61.3311C3.94512 61.208 3.75194 61.0215 3.62094 60.7933C3.51465 60.5962 3.45652 60.3768 3.45129 60.1531C3.44606 59.9293 3.49387 59.7075 3.59084 59.5057C3.71617 59.2627 3.91001 59.0618 4.14844 58.9275C4.38688 58.7933 4.65947 58.7317 4.93259 58.7502C4.86472 58.3984 4.91775 58.0339 5.08311 57.7159C5.24861 57.4154 5.49297 57.1655 5.78996 56.9931C6.08695 56.8207 6.42537 56.7323 6.76891 56.7373C7.87843 56.7373 8.34289 57.4841 8.34289 58.5056C8.34289 59.1237 7.48279 59.673 6.97533 60.0078C7.48709 60.3426 8.34289 60.892 8.33859 61.5101C8.33859 62.5402 7.87843 63.287 6.76461 63.287ZM15.4215 59.3254C12.781 59.2953 17.4298 59.3254 11.2328 59.3254C10.9869 59.3356 10.7408 59.311 10.5017 59.2524C10.3457 59.1801 10.2131 59.0656 10.119 58.9219C9.91412 58.2332 9.63587 57.5685 9.289 56.939C9.01242 56.5216 8.63879 56.1771 8.19998 55.9349C7.76117 55.6928 7.27019 55.5602 6.76891 55.5483C6.27975 55.5619 5.80154 55.6959 5.37685 55.9385C4.95217 56.1812 4.5942 56.5248 4.33482 56.939C4.15133 57.1996 3.99567 57.4787 3.87037 57.7716C3.46911 57.9009 3.10181 58.1179 2.79525 58.4069C2.55871 58.6262 2.37003 58.8919 2.24102 59.1873C2.112 59.4827 2.04541 59.8015 2.04541 60.1237C2.04541 60.446 2.112 60.7647 2.24102 61.0601C2.37003 61.3555 2.55871 61.6212 2.79525 61.8406C3.13121 62.1625 3.54433 62.3931 3.99509 62.5101C4.09713 62.7145 4.21655 62.9098 4.35203 63.0938C4.61197 63.5075 4.97007 63.8507 5.39463 64.0933C5.81919 64.3359 6.29712 64.4702 6.78611 64.4845C7.2843 64.4692 7.77156 64.335 8.20705 64.093C8.64253 63.8511 9.01355 63.5084 9.289 63.0938C9.70155 62.487 9.98412 61.8017 10.119 61.0809C10.2071 60.9186 10.3482 60.7913 10.5189 60.7203C10.7521 60.6614 10.9943 60.6468 11.2328 60.6774H15.4215C15.5108 60.5888 15.5817 60.4835 15.6301 60.3675C15.6785 60.2515 15.7034 60.1271 15.7034 60.0014C15.7034 59.8757 15.6785 59.7513 15.6301 59.6353C15.5817 59.5193 15.5108 59.4139 15.4215 59.3254Z" fill="#0A3647"/>
<path d="M27.0502 59.5316C27.162 59.4266 27.2655 59.3133 27.3599 59.1925C27.5611 58.9615 27.7812 58.7476 28.0179 58.553C28.3112 58.3155 28.6299 58.1111 28.9683 57.9435C29.3268 57.753 29.7276 57.6556 30.1337 57.6602C30.4257 57.6582 30.7161 57.7031 30.9938 57.7933C31.257 57.8762 31.4951 58.0238 31.6862 58.2225C31.9049 58.4415 32.0736 58.705 32.1807 58.9951C32.3114 59.3701 32.3726 59.7657 32.3614 60.1625V64.7508C32.3657 64.8476 32.3999 64.9407 32.4591 65.0175C32.5184 65.0943 32.5998 65.151 32.6925 65.18C32.9335 65.2761 33.1845 65.3452 33.4408 65.386C33.4885 65.4 33.5296 65.4307 33.5565 65.4725C33.5834 65.5143 33.5942 65.5644 33.587 65.6135C33.584 65.7147 33.571 65.8153 33.5483 65.914L32.6194 65.841C32.327 65.841 32.0001 65.8195 31.6346 65.8195C31.269 65.8195 30.9938 65.8195 30.667 65.841L29.7166 65.914C29.697 65.8149 29.6855 65.7144 29.6821 65.6135C29.6757 65.562 29.6889 65.51 29.7192 65.4678C29.7495 65.4256 29.7946 65.3964 29.8456 65.386C29.9569 65.3741 30.0666 65.3496 30.1724 65.3131C30.2866 65.2788 30.3974 65.2343 30.5035 65.18C30.5898 65.1355 30.6694 65.0792 30.7401 65.0126C30.7749 64.9777 30.8023 64.9361 30.8208 64.8904C30.8393 64.8447 30.8484 64.7958 30.8476 64.7465V61.0596C30.8486 60.7726 30.8314 60.4859 30.796 60.2012C30.7661 59.9647 30.6917 59.7361 30.5767 59.5273C30.4852 59.334 30.3346 59.1747 30.1466 59.0723C29.9427 58.9522 29.708 58.894 29.4714 58.905C29.1655 58.9052 28.8622 58.962 28.5769 59.0723C28.2852 59.1743 28.018 59.3357 27.7922 59.5463C27.5664 59.7569 27.3869 60.012 27.2653 60.2956C27.1262 60.6225 27.0573 60.9749 27.0631 61.33V64.7637C27.0653 64.858 27.0961 64.9495 27.1514 65.0261C27.2066 65.1027 27.2838 65.1609 27.3728 65.1929C27.5963 65.2881 27.8301 65.3572 28.0695 65.3989C28.1204 65.4093 28.1655 65.4385 28.1958 65.4807C28.2261 65.5229 28.2394 65.5749 28.2329 65.6264C28.2299 65.7275 28.2169 65.8282 28.1942 65.9268L27.2653 65.8539C26.9599 65.8539 26.6374 65.8324 26.2977 65.8324C25.9579 65.8324 25.6096 65.8324 25.2956 65.8539L24.3624 65.9268C24.3429 65.8278 24.3314 65.7273 24.328 65.6264C24.328 65.5019 24.3753 65.4246 24.4742 65.3989C24.7306 65.3581 24.9815 65.289 25.2225 65.1929C25.3141 65.1626 25.3943 65.1055 25.4526 65.0288C25.511 64.9522 25.5447 64.8598 25.5494 64.7637V54.6171C25.5843 54.3299 25.5056 54.0405 25.33 53.8102C25.0773 53.6337 24.7783 53.5352 24.4699 53.527C24.4364 53.5259 24.4035 53.5181 24.373 53.504C24.3426 53.4899 24.3153 53.4698 24.2928 53.445C24.2704 53.4202 24.2531 53.391 24.2422 53.3594C24.2312 53.3278 24.2268 53.2942 24.2291 53.2608C24.2311 53.1723 24.2441 53.0844 24.2678 52.999C24.4269 52.999 24.6463 52.999 24.9258 52.999L25.6913 52.9218C25.9441 52.89 26.1942 52.8398 26.4396 52.7715C26.5926 52.72 26.7515 52.6882 26.9126 52.6771C26.9527 52.672 26.9934 52.6763 27.0315 52.6897C27.0696 52.7031 27.104 52.7253 27.132 52.7544C27.1718 52.8155 27.1913 52.8876 27.1879 52.9604C27.1703 53.2066 27.1387 53.4517 27.0932 53.6943C27.0526 54.0189 27.0339 54.3459 27.0373 54.6729L27.0502 59.5316ZM40.1711 61.8622C40.1616 60.754 40.5877 59.6861 41.358 58.8878C41.7268 58.5127 42.1649 58.2124 42.6481 58.0036C43.1524 57.7776 43.6994 57.6619 44.2522 57.6645C44.8162 57.658 45.3754 57.7676 45.895 57.9864C46.3809 58.1786 46.8206 58.4712 47.1852 58.8449C47.5677 59.2221 47.8615 59.6795 48.0453 60.184C48.2566 60.7226 48.3617 61.2968 48.3549 61.8751C48.3596 62.9816 47.9359 64.0473 47.1723 64.8495C46.8039 65.2295 46.366 65.5355 45.8821 65.7509C45.3818 65.9686 44.841 66.0783 44.2952 66.0728C43.7349 66.0775 43.1788 65.9755 42.6567 65.7723C42.1761 65.5703 41.7383 65.279 41.3666 64.9139C40.9958 64.5354 40.7035 64.0877 40.5065 63.5962C40.2892 63.0436 40.1755 62.4558 40.1711 61.8622ZM41.8913 61.2399C41.892 61.7214 41.941 62.2016 42.0375 62.6734C42.1249 63.1344 42.2693 63.5828 42.4675 64.0083C42.6627 64.3818 42.9285 64.7141 43.2502 64.9869C43.5794 65.2413 43.9865 65.3747 44.4027 65.3646C44.7117 65.3794 45.0195 65.3183 45.2992 65.1866C45.5789 65.0549 45.8219 64.8566 46.0068 64.6092C46.4144 64.0479 46.6204 63.3659 46.5917 62.6734C46.5882 62.1864 46.5393 61.7007 46.4455 61.2227C46.3725 60.7403 46.2275 60.2716 46.0154 59.832C45.838 59.4243 45.5687 59.063 45.2284 58.7762C44.9027 58.4892 44.4802 58.3358 44.0458 58.347C43.7486 58.3374 43.453 58.3949 43.1812 58.5153C42.9094 58.6357 42.6684 58.8159 42.4761 59.0423C42.0805 59.5101 41.887 60.2398 41.887 61.2399H41.8913ZM62.8089 59.5659C62.9277 59.4566 63.037 59.3374 63.1357 59.2097C63.3369 58.9787 63.557 58.7648 63.7937 58.5702C64.0899 58.3329 64.4081 58.1245 64.7441 57.9478C65.1035 57.7597 65.5037 57.6624 65.9095 57.6645C66.2049 57.6342 66.5032 57.6807 66.7753 57.7996C67.0473 57.9184 67.2839 58.1055 67.462 58.3427C67.7949 58.8988 67.9537 59.5415 67.9179 60.1883V64.7594C67.9213 64.8558 67.9546 64.9488 68.0131 65.0257C68.0716 65.1025 68.1525 65.1594 68.2447 65.1886C68.4801 65.2837 68.7253 65.3528 68.9758 65.3946C69.0267 65.405 69.0718 65.4342 69.1021 65.4764C69.1324 65.5186 69.1457 65.5706 69.1392 65.6221C69.1362 65.7233 69.1232 65.8239 69.1005 65.9225L68.1716 65.8496C67.8663 65.8496 67.5394 65.8281 67.1868 65.8281C66.8341 65.8281 66.546 65.8281 66.2192 65.8496L65.2688 65.9225C65.2492 65.8235 65.2377 65.723 65.2344 65.6221C65.2279 65.5706 65.2411 65.5186 65.2714 65.4764C65.3017 65.4342 65.3468 65.405 65.3978 65.3946C65.5105 65.3826 65.6216 65.3582 65.7289 65.3216C65.8414 65.2866 65.9508 65.2421 66.0558 65.1886C66.1427 65.1451 66.2224 65.0887 66.2923 65.0212C66.3277 64.9865 66.3558 64.945 66.375 64.8994C66.3942 64.8537 66.4041 64.8046 66.4041 64.7551V60.8922C66.4519 60.3563 66.357 59.8173 66.1289 59.3299C66.0303 59.1866 65.8958 59.0717 65.7389 58.9964C65.582 58.9211 65.408 58.8881 65.2344 58.9007C64.9227 58.9001 64.6137 58.9569 64.3227 59.0681C64.0422 59.1702 63.7871 59.3312 63.5744 59.5402C63.3479 59.7514 63.1678 60.0071 63.0454 60.2913C62.9063 60.6182 62.8375 60.9706 62.8433 61.3257V64.7594C62.8455 64.8537 62.8762 64.9452 62.9315 65.0218C62.9868 65.0984 63.0639 65.1566 63.1529 65.1886C63.3766 65.2832 63.6103 65.3523 63.8496 65.3946C63.9005 65.405 63.9457 65.4342 63.976 65.4764C64.0063 65.5186 64.0195 65.5706 64.013 65.6221C64.01 65.7233 63.997 65.8239 63.9743 65.9225L63.0454 65.8496C62.753 65.8496 62.4433 65.8281 62.1165 65.8281C61.7897 65.8281 61.4585 65.8281 61.1317 65.8496L60.1813 65.9225C60.1596 65.8238 60.1481 65.7231 60.1469 65.6221C60.1393 65.5704 60.1521 65.5179 60.1826 65.4755C60.2131 65.433 60.2589 65.4041 60.3103 65.3946C60.5344 65.3577 60.7537 65.2958 60.964 65.21C61.0625 65.1803 61.1493 65.1204 61.2118 65.0387C61.2743 64.9571 61.3095 64.8578 61.3123 64.7551V60.8922C61.3625 60.3562 61.2674 59.8166 61.0371 59.3299C60.9456 59.1878 60.8174 59.073 60.666 58.9975C60.5147 58.9219 60.3457 58.8885 60.177 58.9007C59.8653 58.8997 59.5562 58.9565 59.2653 59.0681C58.9785 59.1743 58.7164 59.3375 58.4946 59.5477C58.2729 59.758 58.0961 60.0109 57.9751 60.2913C57.834 60.6176 57.7651 60.9704 57.773 61.3257V64.7594C57.7752 64.8537 57.806 64.9452 57.8612 65.0218C57.9165 65.0984 57.9937 65.1566 58.0826 65.1886C58.3061 65.2798 58.538 65.3488 58.775 65.3946C58.8264 65.4041 58.8722 65.433 58.9027 65.4755C58.9332 65.5179 58.946 65.5704 58.9384 65.6221C58.9372 65.7231 58.9257 65.8238 58.904 65.9225L57.9751 65.8496C57.6698 65.8496 57.3472 65.8281 57.0075 65.8281C56.6678 65.8281 56.3194 65.8281 56.0012 65.8496L55.0723 65.9225C55.0506 65.8238 55.0391 65.7231 55.0379 65.6221C55.0303 65.5704 55.0432 65.5179 55.0736 65.4755C55.1041 65.433 55.1499 65.4041 55.2013 65.3946C55.4504 65.3528 55.6941 65.2837 55.9281 65.1886C56.0201 65.1586 56.1009 65.1015 56.16 65.025C56.2191 64.9484 56.2536 64.8558 56.2592 64.7594V59.6217C56.2831 59.3379 56.2121 59.0541 56.0571 58.8148C55.834 58.61 55.5386 58.502 55.2357 58.5144C55.2025 58.5127 55.17 58.5045 55.1401 58.4902C55.1102 58.4759 55.0834 58.4557 55.0614 58.4309C55.0394 58.4062 55.0225 58.3772 55.0118 58.3459C55.0011 58.3145 54.9968 58.2813 54.9992 58.2483C55.0026 58.1655 55.0156 58.0834 55.0379 58.0036C55.1927 58.0036 55.412 58.0036 55.6916 58.0036C55.9711 58.0036 56.2205 57.9521 56.4054 57.9264C56.685 57.8791 56.9344 57.8276 57.1537 57.7761C57.3073 57.7267 57.466 57.695 57.6268 57.6817C57.7988 57.6817 57.8805 57.7761 57.8805 57.965C57.8776 58.1791 57.8604 58.3927 57.8289 58.6045C57.7859 58.9231 57.7672 59.2445 57.773 59.5659L58.0826 59.2097C58.2827 58.9777 58.5029 58.7637 58.7406 58.5702C59.0326 58.3342 59.3499 58.1313 59.6867 57.965C60.0468 57.7745 60.4489 57.6771 60.8564 57.6817C61.1132 57.6605 61.3716 57.6952 61.6136 57.7834C61.8557 57.8716 62.0757 58.0112 62.2584 58.1925C62.584 58.5781 62.7703 59.0619 62.7874 59.5659H62.8089ZM82.3116 64.0812C82.3454 64.0423 82.387 64.0107 82.4336 63.9885C82.4802 63.9664 82.5309 63.9541 82.5826 63.9525C82.703 63.9525 82.8191 64.0598 82.9309 64.2701C82.7662 64.5053 82.5821 64.7264 82.3804 64.9311C82.1583 65.1563 81.9083 65.3525 81.6365 65.5148C81.3319 65.6867 81.0068 65.8194 80.6688 65.9097C80.2572 66.0147 79.8336 66.0652 79.4088 66.0599C78.9362 66.0622 78.4671 65.9793 78.024 65.8152C77.5849 65.6509 77.1861 65.3948 76.8543 65.0641C76.51 64.6978 76.2386 64.2696 76.0544 63.8022C75.8469 63.2362 75.7477 62.6364 75.762 62.0339C75.7564 61.426 75.8734 60.8231 76.106 60.2613C76.3319 59.7512 76.648 59.2859 77.0392 58.8878C77.3951 58.5163 77.8145 58.2111 78.2778 57.9864C78.6933 57.7833 79.1483 57.6734 79.6109 57.6645C80.7405 57.6645 81.5605 58.0036 82.0708 58.6818C82.6244 59.4525 82.9016 60.387 82.8578 61.3343C82.8598 61.3496 82.8583 61.3652 82.8535 61.3798C82.8486 61.3945 82.8405 61.4079 82.8298 61.419C82.8191 61.4302 82.8059 61.4387 82.7914 61.4441C82.7769 61.4495 82.7614 61.4516 82.746 61.4502L77.4564 61.6948C77.4524 62.1533 77.5206 62.6095 77.6585 63.0468C77.7785 63.4361 77.9695 63.7998 78.2219 64.1199C78.4625 64.4346 78.776 64.6865 79.1355 64.8539C79.495 65.0214 79.8898 65.0994 80.2861 65.0813C80.674 65.0817 81.0556 64.9843 81.3956 64.798C81.7443 64.6221 82.0543 64.3784 82.3073 64.0812H82.3116ZM79.3529 58.3427C79.0726 58.3336 78.7946 58.3963 78.5454 58.5247C78.2963 58.6532 78.0842 58.8432 77.9294 59.0766C77.5671 59.6491 77.3899 60.3189 77.422 60.9952L80.8624 60.8278C81.0473 60.8278 81.1376 60.7463 81.1376 60.5832C81.1362 60.3291 81.1001 60.0764 81.0301 59.832C80.9604 59.5764 80.8485 59.3342 80.6989 59.1153C80.5572 58.8915 80.3641 58.7046 80.1356 58.5702C79.9029 58.4153 79.6281 58.3359 79.3486 58.3427H79.3529ZM94.6111 59.9823C94.5332 59.9876 94.4559 59.9664 94.3917 59.9222C94.3577 59.8774 94.3329 59.8263 94.3186 59.772C94.2995 59.5585 94.2361 59.3514 94.1325 59.1637C94.0288 58.976 93.8872 58.8119 93.7165 58.6818C93.3807 58.4477 92.9777 58.3287 92.5683 58.3427C92.2242 58.3397 91.8891 58.4532 91.6179 58.6646C91.4851 58.7633 91.379 58.8935 91.3092 59.0433C91.2394 59.1932 91.208 59.358 91.218 59.523C91.2156 59.6792 91.247 59.8341 91.3101 59.977C91.3732 60.12 91.4665 60.2477 91.5835 60.3514C91.998 60.6434 92.461 60.8599 92.9511 60.9909C93.2816 61.0953 93.6049 61.2215 93.9187 61.3686C94.2013 61.492 94.4603 61.6633 94.6842 61.8751C94.9073 62.0719 95.0823 62.3171 95.1959 62.5919C95.3243 62.9078 95.3858 63.2468 95.3765 63.5876C95.3774 63.9096 95.3161 64.2288 95.1959 64.5276C95.0845 64.8288 94.9033 65.0994 94.667 65.3173C94.4097 65.5597 94.1052 65.7468 93.7725 65.8667C93.3591 66.0152 92.9215 66.0851 92.4823 66.0728C92.0397 66.0664 91.5989 66.016 91.1664 65.9225C90.7125 65.8396 90.2762 65.6799 89.8762 65.4504C89.8762 65.1242 89.8289 64.7851 89.8031 64.4332C89.7773 64.0812 89.8031 63.7078 89.8031 63.343H89.9837C90.0935 63.3395 90.2021 63.3662 90.2977 63.4202C90.3385 63.4381 90.3737 63.4667 90.3994 63.503C90.4252 63.5393 90.4406 63.5819 90.4439 63.6263C90.4689 64.1129 90.6761 64.5725 91.0244 64.9139C91.4355 65.2482 91.9572 65.4167 92.4866 65.386C92.8977 65.4139 93.3051 65.2936 93.6348 65.0469C93.768 64.9257 93.8729 64.7768 93.942 64.6106C94.0111 64.4445 94.0428 64.2652 94.0348 64.0855C94.0462 63.9056 94.0129 63.7257 93.9379 63.5617C93.8629 63.3977 93.7484 63.2548 93.6047 63.1455C93.2141 62.8699 92.7772 62.6664 92.3146 62.5447C91.6942 62.369 91.1171 62.0664 90.6202 61.6562C90.4098 61.4496 90.2469 61.1998 90.143 60.924C90.039 60.6483 89.9964 60.3533 90.0181 60.0595C90.0161 59.743 90.0775 59.4292 90.1987 59.1367C90.3157 58.8539 90.4899 58.5982 90.7105 58.3856C90.9421 58.164 91.2155 57.9904 91.5147 57.8748C91.8521 57.7453 92.2112 57.6812 92.5726 57.686C93.0368 57.682 93.4987 57.753 93.9402 57.8963C94.2979 57.9924 94.6408 58.1368 94.9594 58.3255C94.9594 58.4285 94.9852 58.553 94.9981 58.7032C95.011 58.8535 94.9981 58.9908 94.9981 59.1324C94.9981 59.2741 94.9981 59.4415 94.9981 59.6046C94.9981 59.7677 94.9981 59.8921 94.9981 60.0338L94.6111 59.9823ZM119.124 65.3259C119.257 65.3259 119.33 65.4547 119.343 65.7208C118.988 65.9592 118.566 66.078 118.139 66.0599C117.901 66.0665 117.665 66.0211 117.447 65.9268C117.262 65.8587 117.094 65.7502 116.956 65.6092C116.823 65.473 116.716 65.3128 116.643 65.1371C116.57 64.963 116.522 64.7795 116.501 64.592C116.263 65.0839 115.881 65.4914 115.404 65.7594C114.952 65.9665 114.46 66.0692 113.963 66.0599C113.701 66.058 113.439 66.0322 113.181 65.9826C112.909 65.9463 112.648 65.8573 112.411 65.7208C112.165 65.5788 111.958 65.3783 111.809 65.1371C111.639 64.8334 111.557 64.4887 111.572 64.1413C111.557 63.7301 111.665 63.3237 111.882 62.9739C112.094 62.6536 112.375 62.3839 112.703 62.1841C113.046 61.9694 113.415 61.7978 113.8 61.6734C114.2 61.5489 114.583 61.4416 114.948 61.3557L115.516 61.2399C115.676 61.1986 115.834 61.1485 115.989 61.0896C116.053 61.0806 116.114 61.0574 116.167 61.0218C116.221 60.9861 116.266 60.9389 116.298 60.8836C116.359 60.722 116.384 60.5493 116.372 60.3771C116.391 59.8729 116.277 59.3723 116.04 58.9264C115.921 58.7292 115.749 58.5696 115.542 58.4663C115.336 58.363 115.105 58.3202 114.875 58.3427C114.696 58.3386 114.517 58.3647 114.346 58.4199C114.205 58.4685 114.079 58.5528 113.98 58.6646C113.87 58.7904 113.784 58.9361 113.727 59.0938C113.654 59.2698 113.581 59.4758 113.507 59.7162C113.49 59.782 113.459 59.8431 113.415 59.8951C113.371 59.9471 113.316 59.9886 113.254 60.0166C113.047 60.11 112.832 60.1861 112.613 60.2441C112.523 60.2732 112.431 60.2976 112.338 60.3171C112.249 60.3402 112.158 60.3532 112.067 60.3557C111.946 60.3557 111.882 60.2226 111.882 59.9608C111.891 59.6583 112 59.3673 112.191 59.1324C112.411 58.8456 112.677 58.5975 112.978 58.3985C113.307 58.1837 113.663 58.0134 114.036 57.892C114.379 57.7578 114.743 57.6865 115.112 57.6817C115.497 57.6776 115.883 57.7165 116.26 57.7976C116.577 57.8687 116.872 58.016 117.12 58.2268C117.373 58.4419 117.562 58.7226 117.666 59.038C117.814 59.4611 117.882 59.9078 117.868 60.3557V63.5919C117.868 64.0211 117.868 64.3516 117.903 64.5491C117.93 64.7054 117.979 64.8571 118.049 64.9997C118.106 65.1424 118.202 65.2669 118.324 65.3603C118.426 65.4088 118.538 65.4337 118.651 65.4332C118.744 65.4385 118.837 65.4269 118.926 65.3989C118.975 65.364 119.031 65.3392 119.089 65.3259H119.124ZM116.372 61.6562L115.787 61.7506C115.473 61.8107 115.163 61.888 114.858 61.9738C114.577 62.0575 114.312 62.185 114.071 62.3515C113.842 62.5016 113.649 62.701 113.507 62.9352C113.365 63.2078 113.296 63.5123 113.305 63.8194C113.277 64.2139 113.402 64.6041 113.654 64.9096C113.768 65.0319 113.906 65.1289 114.06 65.194C114.215 65.259 114.381 65.2909 114.548 65.2873C114.781 65.2858 115.012 65.2345 115.223 65.1371C115.445 65.0366 115.643 64.8903 115.804 64.7079C115.978 64.5013 116.115 64.266 116.208 64.0126C116.317 63.7395 116.373 63.4481 116.372 63.1541V61.6562ZM133.621 64.7594C133.625 64.8562 133.659 64.9493 133.719 65.0261C133.778 65.1029 133.859 65.1596 133.952 65.1886C134.186 65.2837 134.43 65.3528 134.679 65.3946C134.73 65.4041 134.776 65.433 134.806 65.4755C134.837 65.5179 134.85 65.5704 134.842 65.6221C134.841 65.7231 134.829 65.8238 134.808 65.9225L133.879 65.8496C133.574 65.8496 133.247 65.8281 132.894 65.8281C132.541 65.8281 132.236 65.8281 131.905 65.8496L130.959 65.9225C130.936 65.8239 130.923 65.7233 130.92 65.6221C130.914 65.57 130.928 65.5174 130.959 65.4751C130.99 65.4329 131.036 65.4041 131.088 65.3946C131.326 65.3524 131.558 65.2832 131.78 65.1886C131.869 65.1566 131.946 65.0984 132.002 65.0218C132.057 64.9452 132.088 64.8537 132.09 64.7594V61.0725C132.092 60.7854 132.073 60.4985 132.034 60.214C132.009 59.9766 131.934 59.7471 131.815 59.5402C131.724 59.3465 131.573 59.1871 131.385 59.0852C131.181 58.965 130.946 58.9069 130.709 58.9178C130.403 58.9181 130.1 58.9749 129.815 59.0852C129.523 59.1867 129.255 59.3474 129.028 59.5574C128.804 59.7708 128.624 60.026 128.499 60.3085C128.361 60.6357 128.294 60.9881 128.301 61.3429V64.7765C128.303 64.8709 128.334 64.9624 128.389 65.039C128.445 65.1156 128.522 65.1737 128.611 65.2058C128.834 65.2969 129.066 65.3659 129.303 65.4118C129.355 65.4212 129.4 65.4502 129.431 65.4926C129.461 65.535 129.474 65.5876 129.467 65.6393C129.463 65.7402 129.452 65.8406 129.432 65.9397L128.499 65.8667C128.198 65.8667 127.875 65.8453 127.536 65.8453C127.196 65.8453 126.848 65.8453 126.529 65.8667L125.6 65.9397C125.579 65.841 125.567 65.7403 125.566 65.6393C125.558 65.5876 125.571 65.535 125.602 65.4926C125.632 65.4502 125.678 65.4212 125.729 65.4118C125.978 65.3694 126.222 65.3003 126.456 65.2058C126.548 65.1757 126.629 65.1187 126.688 65.0421C126.747 64.9656 126.782 64.873 126.787 64.7765V59.6217C126.811 59.3379 126.74 59.0541 126.585 58.8148C126.362 58.61 126.067 58.502 125.764 58.5144C125.731 58.5127 125.698 58.5045 125.668 58.4902C125.638 58.4759 125.612 58.4557 125.59 58.4309C125.568 58.4062 125.551 58.3772 125.54 58.3459C125.529 58.3145 125.525 58.2813 125.527 58.2483C125.531 58.1655 125.544 58.0834 125.566 58.0036C125.721 58.0036 125.94 58.0036 126.22 58.0036C126.499 58.0036 126.749 57.9521 126.934 57.9264C127.213 57.8791 127.463 57.8276 127.682 57.7761C127.835 57.7263 127.994 57.6946 128.155 57.6817C128.323 57.6817 128.409 57.7761 128.409 57.965C128.406 58.1791 128.389 58.3927 128.357 58.6045C128.314 58.9231 128.295 59.2445 128.301 59.5659C128.738 59.0387 129.241 58.5698 129.798 58.171C130.265 57.8507 130.818 57.68 131.385 57.6817C131.695 57.6589 132.006 57.7083 132.294 57.826C132.583 57.9437 132.839 58.1264 133.045 58.3599C133.448 58.8879 133.648 59.5428 133.608 60.2055L133.621 64.7594ZM149.008 64.1585C149.007 64.2909 149.019 64.4231 149.042 64.5534C149.067 64.6521 149.117 64.7426 149.189 64.8152C149.271 64.8988 149.371 64.9633 149.481 65.004C149.649 65.0484 149.82 65.0799 149.993 65.0985C150.152 65.1242 150.229 65.2058 150.229 65.3431C150.227 65.4327 150.215 65.5219 150.195 65.6092C150.036 65.6092 149.821 65.6092 149.554 65.6435C149.288 65.6779 149.081 65.6779 148.896 65.7036C148.63 65.7509 148.393 65.8024 148.187 65.8539C148.048 65.904 147.903 65.9358 147.757 65.9483C147.589 65.9483 147.503 65.8539 147.503 65.665V64.2357C147.331 64.4718 147.163 64.7036 146.991 64.9311C146.815 65.1498 146.613 65.3459 146.389 65.5148C146.155 65.6843 145.897 65.8174 145.624 65.9097C145.281 66.0165 144.924 66.0672 144.566 66.0599C144.155 66.0596 143.75 65.9688 143.379 65.7938C142.981 65.618 142.629 65.3555 142.347 65.0255C142.037 64.6397 141.796 64.2043 141.633 63.7379C141.456 63.183 141.37 62.6032 141.379 62.021C141.368 61.3851 141.499 60.7547 141.762 60.1754C141.989 59.662 142.312 59.196 142.712 58.8019C143.058 58.4379 143.473 58.1461 143.933 57.9435C144.32 57.756 144.742 57.6522 145.172 57.6388C145.586 57.6322 145.998 57.6842 146.398 57.7933C146.765 57.8816 147.125 58.0007 147.473 58.1495V54.5914C147.5 54.3127 147.428 54.0332 147.271 53.8016C147.048 53.5968 146.752 53.4888 146.449 53.5012C146.416 53.4996 146.384 53.4914 146.354 53.477C146.324 53.4627 146.297 53.4425 146.275 53.4178C146.253 53.393 146.236 53.3641 146.225 53.3327C146.215 53.3013 146.21 53.2681 146.213 53.2351C146.215 53.1466 146.228 53.0586 146.251 52.9733C146.406 52.9733 146.626 52.9733 146.905 52.9733C147.185 52.9733 147.434 52.9218 147.619 52.896C147.872 52.8642 148.122 52.814 148.367 52.7458C148.52 52.6942 148.679 52.6625 148.84 52.6514C149.012 52.6514 149.094 52.7458 149.094 52.9346C149.092 53.1801 149.075 53.4252 149.042 53.6686C149.001 54.006 148.982 54.3459 148.987 54.6858L149.008 64.1585ZM147.494 59.3985C147.206 59.0863 146.868 58.8251 146.492 58.626C146.107 58.4328 145.681 58.3356 145.249 58.3427C144.924 58.3308 144.602 58.4092 144.319 58.569C144.036 58.7289 143.803 58.9641 143.645 59.2483C143.266 59.959 143.084 60.7574 143.116 61.5618C143.114 62.0236 143.163 62.4842 143.263 62.9352C143.36 63.3314 143.513 63.7115 143.718 64.0641C143.904 64.3691 144.152 64.6322 144.445 64.8366C144.733 65.024 145.069 65.1225 145.413 65.1199C145.673 65.1142 145.926 65.0353 146.144 64.8924C146.39 64.7374 146.612 64.5464 146.802 64.3259C147.008 64.0914 147.173 63.8245 147.292 63.5361C147.422 63.2591 147.491 62.9577 147.494 62.652V59.3985ZM170.364 63.7808C170.949 62.2914 171.384 61.1411 171.654 60.3471C171.856 59.8634 172 59.3578 172.085 58.8406C172.087 58.7844 172.077 58.7284 172.056 58.6764C172.034 58.6245 172.001 58.578 171.96 58.5401C171.796 58.4151 171.598 58.3431 171.392 58.3341C171.36 58.3361 171.327 58.3311 171.297 58.3194C171.267 58.3077 171.24 58.2896 171.217 58.2663C171.195 58.2431 171.178 58.2152 171.167 58.1847C171.156 58.1541 171.152 58.1216 171.156 58.0895C171.153 58.0523 171.153 58.015 171.156 57.9779C171.156 57.9264 171.181 57.8834 171.194 57.8448C171.667 57.8834 172.175 57.9006 172.708 57.9006H173.439C173.654 57.9006 173.869 57.8706 174.058 57.8448C174.09 57.9229 174.109 58.0055 174.114 58.0895C174.117 58.1212 174.111 58.1529 174.098 58.1821C174.086 58.2112 174.066 58.2369 174.041 58.2568L173.874 58.3727C173.654 58.5101 173.443 58.6346 173.237 58.7461C173.024 58.867 172.862 59.0606 172.781 59.2912L170.136 66.0298C170.047 66.0581 169.954 66.0711 169.861 66.0685C169.799 66.0705 169.738 66.0535 169.685 66.0197C169.633 65.986 169.592 65.9371 169.569 65.8796L169.315 65.2787L166.816 59.2912C166.761 59.143 166.693 58.9995 166.614 58.862C166.564 58.7615 166.496 58.6713 166.412 58.5959C166.334 58.5304 166.241 58.486 166.141 58.4672C166.001 58.4226 165.857 58.391 165.711 58.3727C165.556 58.3727 165.475 58.2654 165.475 58.0895C165.478 58.0052 165.497 57.9223 165.531 57.8448C165.836 57.8706 166.12 57.8877 166.391 57.9006H168.343C168.648 57.9006 168.958 57.8706 169.276 57.8448C169.312 57.9215 169.329 58.0051 169.328 58.0895C169.331 58.1216 169.327 58.1541 169.317 58.1847C169.306 58.2152 169.289 58.2431 169.266 58.2663C169.244 58.2896 169.216 58.3077 169.186 58.3194C169.156 58.3311 169.124 58.3361 169.091 58.3341C168.888 58.3563 168.69 58.4129 168.506 58.5015C168.467 58.5243 168.434 58.5576 168.412 58.5978C168.39 58.6379 168.38 58.6833 168.382 58.729C168.402 58.8896 168.438 59.0477 168.489 59.2011C168.561 59.4386 168.677 59.7519 168.838 60.1411L170.364 63.7808ZM182.234 65.8324H181.597L181.012 65.871L180.539 65.9097H180.281C180.284 65.8653 180.284 65.8209 180.281 65.7766C180.277 65.7209 180.277 65.6649 180.281 65.6092C180.275 65.5577 180.288 65.5057 180.318 65.4635C180.349 65.4213 180.394 65.3921 180.445 65.3817C180.707 65.3365 180.964 65.2616 181.21 65.1585C181.299 65.1287 181.376 65.0706 181.429 64.9931C181.482 64.9156 181.507 64.8229 181.503 64.7293V59.6217C181.527 59.3379 181.455 59.0541 181.3 58.8148C181.077 58.61 180.782 58.502 180.479 58.5144C180.446 58.5127 180.413 58.5045 180.383 58.4902C180.354 58.4759 180.327 58.4557 180.305 58.4309C180.283 58.4062 180.266 58.3772 180.255 58.3459C180.245 58.3145 180.24 58.2813 180.243 58.2483C180.246 58.1655 180.259 58.0834 180.281 58.0036C180.44 58.0036 180.66 58.0036 180.939 58.0036C181.219 58.0036 181.464 57.9521 181.649 57.9264C181.928 57.8791 182.178 57.8276 182.397 57.7761C182.551 57.7267 182.709 57.695 182.87 57.6817C183.042 57.6817 183.124 57.7761 183.124 57.965C183.121 58.1791 183.104 58.3927 183.072 58.6045C183.029 58.9231 183.011 59.2445 183.016 59.5659V64.7594C183.01 64.8509 183.034 64.9419 183.083 65.0192C183.133 65.0964 183.206 65.1558 183.292 65.1886C183.549 65.2941 183.817 65.369 184.091 65.4118C184.19 65.4375 184.238 65.5148 184.238 65.6393C184.242 65.695 184.242 65.751 184.238 65.8067C184.238 65.8839 184.238 65.9268 184.238 65.9397H183.98L183.524 65.9011L182.922 65.8624L182.234 65.8324ZM181.141 54.5098C181.136 54.2245 181.241 53.948 181.434 53.7373C181.53 53.6294 181.648 53.5434 181.78 53.4849C181.912 53.4264 182.055 53.3968 182.199 53.3982C182.339 53.3966 182.477 53.4262 182.603 53.4849C182.73 53.5436 182.842 53.6298 182.93 53.7373C183.123 53.948 183.228 54.2245 183.223 54.5098C183.229 54.6543 183.207 54.7985 183.156 54.9342C183.106 55.0698 183.029 55.194 182.93 55.2996C182.836 55.398 182.723 55.4756 182.597 55.5274C182.471 55.5791 182.335 55.6039 182.199 55.6C182.058 55.6037 181.917 55.5791 181.786 55.5275C181.654 55.4758 181.535 55.3983 181.434 55.2996C181.335 55.194 181.258 55.0698 181.208 54.9342C181.158 54.7985 181.135 54.6543 181.141 54.5098ZM194.684 65.9268L193.72 65.8539C193.389 65.8539 193.062 65.8324 192.735 65.8324C192.409 65.8324 192.065 65.8324 191.712 65.8539L190.744 65.9268C190.725 65.8278 190.713 65.7273 190.71 65.6264C190.702 65.5747 190.715 65.5222 190.746 65.4797C190.776 65.4373 190.822 65.4083 190.873 65.3989C191.129 65.3547 191.38 65.2857 191.622 65.1929C191.716 65.1656 191.8 65.1096 191.862 65.0328C191.924 64.9559 191.96 64.8619 191.966 64.7637V54.6171C191.984 54.4736 191.972 54.3279 191.932 54.1891C191.891 54.0502 191.822 53.9213 191.729 53.8102C191.482 53.6223 191.179 53.5225 190.869 53.527C190.836 53.5253 190.803 53.5171 190.773 53.5028C190.744 53.4884 190.717 53.4683 190.695 53.4435C190.673 53.4187 190.656 53.3898 190.645 53.3584C190.635 53.3271 190.63 53.2939 190.633 53.2608C190.635 53.1726 190.647 53.0849 190.667 52.999C190.826 52.999 191.045 52.999 191.325 52.999L192.09 52.9218C192.343 52.89 192.593 52.8398 192.839 52.7715C192.992 52.7203 193.151 52.6886 193.312 52.6771C193.352 52.6712 193.393 52.6752 193.431 52.6887C193.469 52.7021 193.504 52.7247 193.531 52.7544C193.573 52.8146 193.593 52.8873 193.587 52.9604C193.585 53.2117 193.566 53.4627 193.531 53.7115C193.494 54.0364 193.477 54.3632 193.479 54.6901V64.7594C193.484 64.8555 193.518 64.9479 193.576 65.0246C193.635 65.1012 193.715 65.1584 193.806 65.1886C194.054 65.2831 194.31 65.3521 194.572 65.3946C194.671 65.4204 194.718 65.4976 194.718 65.6221C194.717 65.7246 194.705 65.8266 194.684 65.9268ZM205.289 65.9268L204.321 65.8539C203.994 65.8539 203.667 65.8324 203.336 65.8324C203.005 65.8324 202.67 65.8324 202.317 65.8539C201.964 65.8753 201.655 65.9011 201.349 65.9268C201.327 65.8282 201.314 65.7275 201.311 65.6264C201.304 65.5749 201.317 65.5229 201.348 65.4807C201.378 65.4385 201.423 65.4093 201.474 65.3989C201.73 65.3559 201.981 65.2868 202.222 65.1929C202.318 65.1658 202.402 65.11 202.464 65.0332C202.527 64.9564 202.564 64.8623 202.571 64.7637V54.6171C202.589 54.4736 202.577 54.3279 202.537 54.1891C202.496 54.0502 202.427 53.9213 202.334 53.8102C202.087 53.6231 201.784 53.5235 201.474 53.527C201.441 53.5253 201.408 53.5171 201.379 53.5028C201.349 53.4884 201.322 53.4683 201.3 53.4435C201.278 53.4187 201.261 53.3898 201.25 53.3584C201.24 53.3271 201.235 53.2939 201.238 53.2608C201.24 53.1723 201.253 53.0844 201.276 52.999C201.435 52.999 201.655 52.999 201.934 52.999L202.7 52.9218C202.953 52.89 203.203 52.8398 203.448 52.7715C203.601 52.72 203.76 52.6882 203.921 52.6771C203.961 52.672 204.002 52.6763 204.04 52.6897C204.078 52.7031 204.112 52.7253 204.14 52.7544C204.18 52.8155 204.2 52.8876 204.196 52.9604C204.192 53.2116 204.174 53.4624 204.14 53.7115C204.1 54.0361 204.081 54.363 204.085 54.6901V64.7594C204.09 64.8552 204.124 64.9471 204.183 65.0235C204.241 65.0999 204.32 65.1573 204.411 65.1886C204.66 65.283 204.918 65.3521 205.181 65.3946C205.276 65.4204 205.323 65.4976 205.323 65.6221C205.322 65.7246 205.311 65.8267 205.289 65.9268ZM219.523 65.3259C219.657 65.3259 219.73 65.4547 219.743 65.7208C219.388 65.9586 218.966 66.0774 218.538 66.0599C218.301 66.0665 218.064 66.0211 217.846 65.9268C217.659 65.8604 217.49 65.7517 217.352 65.6092C217.219 65.4728 217.114 65.3126 217.042 65.1371C216.97 64.9625 216.921 64.7792 216.896 64.592C216.658 65.0839 216.276 65.4914 215.799 65.7594C215.348 65.9669 214.855 66.0696 214.358 66.0599C214.096 66.0578 213.834 66.032 213.576 65.9826C213.306 65.9463 213.046 65.8573 212.81 65.7208C212.564 65.5788 212.357 65.3783 212.208 65.1371C212.036 64.8342 211.954 64.4889 211.972 64.1413C211.956 63.7301 212.064 63.3237 212.281 62.9739C212.493 62.6528 212.773 62.3829 213.103 62.1841C213.445 61.9702 213.811 61.7987 214.195 61.6734C214.595 61.5489 214.982 61.4416 215.343 61.3557L215.911 61.2399C216.071 61.1986 216.229 61.1485 216.384 61.0896C216.556 61.041 216.659 60.9723 216.694 60.8836C216.754 60.722 216.779 60.5493 216.767 60.3771C216.788 59.8733 216.675 59.3727 216.44 58.9264C216.319 58.7295 216.146 58.5704 215.939 58.4672C215.732 58.364 215.5 58.3209 215.27 58.3427C215.091 58.3386 214.912 58.3647 214.741 58.4199C214.601 58.4675 214.476 58.552 214.38 58.6646C214.266 58.789 214.178 58.9349 214.122 59.0938C214.049 59.2698 213.976 59.4758 213.903 59.7162C213.887 59.7828 213.856 59.8448 213.812 59.8971C213.768 59.9493 213.712 59.9903 213.649 60.0166C213.442 60.1108 213.228 60.1869 213.008 60.2441C212.935 60.2698 212.845 60.2913 212.737 60.3171C212.647 60.34 212.555 60.3529 212.462 60.3557C212.341 60.3557 212.281 60.2226 212.281 59.9608C212.291 59.6583 212.4 59.3673 212.591 59.1324C212.81 58.8467 213.074 58.5987 213.374 58.3985C213.703 58.1853 214.059 58.0151 214.431 57.892C214.776 57.7574 215.141 57.6861 215.511 57.6817C215.897 57.6776 216.282 57.7165 216.659 57.7976C216.977 57.868 217.272 58.0155 217.519 58.2268C217.773 58.4428 217.963 58.7231 218.07 59.038C218.216 59.4614 218.283 59.9081 218.268 60.3557V63.5919C218.262 63.9114 218.275 64.231 218.306 64.5491C218.331 64.7059 218.381 64.8579 218.452 64.9997C218.511 65.1406 218.604 65.2645 218.723 65.3603C218.827 65.4089 218.94 65.4338 219.055 65.4332C219.146 65.4387 219.238 65.427 219.325 65.3989C219.385 65.3602 219.453 65.3352 219.523 65.3259ZM216.767 61.6562L216.182 61.7506C215.868 61.8107 215.558 61.888 215.253 61.9738C214.974 62.0575 214.709 62.185 214.47 62.3515C214.219 62.5016 214.015 62.7183 213.879 62.9774C213.744 63.2365 213.684 63.528 213.705 63.8194C213.676 64.2133 213.799 64.6034 214.049 64.9096C214.163 65.0317 214.302 65.1285 214.456 65.1936C214.61 65.2587 214.776 65.2906 214.943 65.2873C215.177 65.2862 215.407 65.2349 215.618 65.1371C215.842 65.0372 216.041 64.8908 216.203 64.7079C216.375 64.5 216.51 64.265 216.603 64.0126C216.712 63.7395 216.768 63.4481 216.767 63.1541V61.6562ZM230.958 59.9823C230.88 59.9876 230.803 59.9664 230.739 59.9222C230.704 59.8782 230.679 59.8268 230.666 59.772C230.647 59.5585 230.583 59.3514 230.48 59.1637C230.376 58.976 230.234 58.8119 230.064 58.6818C229.728 58.4477 229.325 58.3287 228.916 58.3427C228.571 58.3397 228.236 58.4532 227.965 58.6646C227.832 58.7633 227.726 58.8935 227.656 59.0433C227.587 59.1932 227.555 59.358 227.565 59.523C227.563 59.6792 227.594 59.8341 227.657 59.977C227.72 60.12 227.814 60.2477 227.931 60.3514C228.345 60.6434 228.808 60.8599 229.298 60.9909C229.629 61.0953 229.952 61.2215 230.266 61.3686C230.549 61.492 230.808 61.6633 231.031 61.8751C231.255 62.0719 231.43 62.3171 231.543 62.5919C231.672 62.9078 231.733 63.2468 231.724 63.5876C231.725 63.9096 231.663 64.2288 231.543 64.5276C231.432 64.8288 231.251 65.0994 231.014 65.3173C230.757 65.5597 230.452 65.7468 230.12 65.8667C229.706 66.0152 229.269 66.0851 228.83 66.0728C228.387 66.0661 227.946 66.0158 227.514 65.9225C227.06 65.8396 226.623 65.6799 226.223 65.4504C226.223 65.1242 226.176 64.7851 226.15 64.4332C226.125 64.0812 226.15 63.7078 226.15 63.343H226.335C226.444 63.3398 226.551 63.3665 226.645 63.4202C226.686 63.4374 226.721 63.466 226.746 63.5025C226.771 63.539 226.785 63.582 226.787 63.6263C226.815 64.1129 227.024 64.5717 227.372 64.9139C227.783 65.2482 228.304 65.4167 228.834 65.386C229.245 65.4139 229.652 65.2936 229.982 65.0469C230.115 64.9257 230.22 64.7768 230.289 64.6106C230.358 64.4445 230.39 64.2652 230.382 64.0855C230.393 63.9056 230.36 63.7257 230.285 63.5617C230.21 63.3977 230.096 63.2548 229.952 63.1455C229.562 62.8691 229.125 62.6655 228.662 62.5447C228.041 62.369 227.464 62.0664 226.967 61.6562C226.757 61.4496 226.594 61.1998 226.49 60.924C226.386 60.6483 226.344 60.3533 226.365 60.0595C226.363 59.743 226.425 59.4292 226.546 59.1367C226.663 58.8539 226.837 58.5982 227.058 58.3856C227.289 58.164 227.563 57.9904 227.862 57.8748C228.199 57.7453 228.558 57.6812 228.92 57.686C229.384 57.682 229.846 57.753 230.287 57.8963C230.645 57.9932 230.988 58.1376 231.307 58.3255C231.307 58.4285 231.332 58.553 231.345 58.7032C231.358 58.8535 231.345 58.9908 231.345 59.1324C231.345 59.2741 231.345 59.4415 231.345 59.6046C231.345 59.7677 231.345 59.8921 231.345 60.0338L230.958 59.9823Z" fill="#0A3647"/>
<path fill-rule="evenodd" clip-rule="evenodd" d="M242.191 59.2696C244.513 59.2696 245.885 59.2953 248.233 59.2696V59.6301C248.099 59.7383 247.955 59.8332 247.803 59.9134C247.59 60.0395 247.387 60.1831 247.197 60.3426V60.8705V61.48V61.9307C247.197 62.1238 247.261 62.141 247.339 62.141C247.854 61.7922 248.458 61.5986 249.08 61.583C249.69 61.629 250.28 61.8203 250.801 62.141C250.801 62.141 250.947 62.1882 250.947 61.9307C250.947 61.6731 250.947 61.48 250.947 61.48V60.8619V60.334C250.752 60.1845 250.543 60.0537 250.323 59.9434C250.139 59.8507 249.961 59.7461 249.79 59.6301C249.79 58.394 249.79 60.4156 249.79 59.2696H251.342C251.492 59.2755 251.639 59.2227 251.751 59.1225C251.862 59.0223 251.93 58.8826 251.94 58.7331V58.5185C251.942 58.3607 251.882 58.2085 251.774 58.0934C251.666 57.9783 251.517 57.9092 251.36 57.9004C247.64 57.9605 245.907 57.9004 242.204 57.9004C242.111 57.9884 242.037 58.0941 241.986 58.2112C241.935 58.3283 241.908 58.4545 241.907 58.5823C241.906 58.71 241.93 58.8366 241.979 58.9547C242.028 59.0728 242.1 59.1799 242.191 59.2696Z" fill="#0A3647"/>
</svg>
