<svg width="300" height="83" viewBox="0 0 300 83" fill="none" xmlns="http://www.w3.org/2000/svg">
<path d="M123.084 34.6206C123.084 34.492 123.212 34.492 123.341 34.3634C123.212 34.3634 123.212 34.3634 123.084 34.3634C122.57 34.3634 122.056 34.3634 121.671 34.2349C120.643 33.9777 119.615 32.8205 118.716 30.5062C115.247 21.8916 112.42 14.9485 110.364 9.80547C110.107 9.03401 109.722 8.77686 109.465 8.77686C109.208 8.77686 108.823 9.29117 108.566 10.1912L100.086 31.4062C99.7006 32.4348 99.3152 33.0777 98.9298 33.4634C98.4158 33.9777 97.9019 34.3634 97.131 34.3634C96.7456 34.3634 96.4886 34.492 96.1032 34.492C95.8462 34.492 95.7178 34.6206 95.7178 34.7492C95.7178 35.0063 95.9747 35.1349 96.3602 35.1349C97.0026 35.1349 98.4158 35.1349 100.343 35.0063C100.728 35.0063 101.242 35.0063 102.142 35.0063C103.041 35.0063 103.555 35.0063 103.94 35.0063C104.326 35.0063 104.454 34.8777 104.454 34.6206C104.454 34.492 104.326 34.3634 103.94 34.3634H103.427C102.527 34.3634 102.013 33.9777 102.013 33.3348C102.013 32.8205 102.142 32.1776 102.527 31.2776L104.326 26.3917C104.454 26.2632 104.454 26.1346 104.583 26.1346H112.163C112.292 26.1346 112.42 26.2632 112.549 26.3917L115.247 33.592C115.375 33.9777 115.247 34.2349 114.99 34.3634C114.733 34.3634 114.476 34.492 114.476 34.6206C114.476 34.7492 114.861 34.8777 115.504 34.8777C116.917 34.8777 119.101 35.0063 121.928 35.0063C122.57 35.0063 122.955 35.0063 123.084 34.8777C123.084 34.8777 123.084 34.8777 123.212 34.8777C123.084 34.7492 123.084 34.7492 123.084 34.6206ZM111.649 24.4631H105.482C105.354 24.4631 105.354 24.3345 105.354 24.2059L108.437 15.8485C108.437 15.5914 108.566 15.5914 108.694 15.5914C108.823 15.5914 108.823 15.7199 108.823 15.8485L111.906 24.2059C111.778 24.4631 111.778 24.4631 111.649 24.4631Z" fill="#0A3647"/>
<path d="M131.306 34.2352C130.535 34.1066 130.021 34.1066 130.021 34.1066C129.251 33.8495 128.865 32.5637 128.865 30.3779L128.48 16.2346H128.608C129.507 17.2632 130.535 18.2918 131.435 19.3204C133.362 21.3776 135.032 23.1777 136.574 24.7206C141.071 29.2207 144.411 32.5637 146.467 34.6209C146.981 35.1352 147.366 35.3924 147.623 35.3924C147.88 35.3924 148.009 35.0066 148.009 34.3638L148.394 13.0202C148.394 12.2487 148.522 11.6059 148.651 11.2201C148.908 10.4487 149.55 10.0629 150.707 10.0629C151.092 10.0629 151.349 9.93436 151.349 9.80579C151.349 9.54864 151.092 9.54864 150.578 9.54864C149.936 9.54864 149.165 9.54864 148.394 9.54864C147.623 9.54864 147.238 9.54864 147.238 9.54864C147.109 9.54864 146.467 9.54864 145.567 9.54864C144.668 9.54864 143.769 9.54864 143.126 9.54864C142.484 9.54864 142.227 9.67721 142.227 9.80579C142.227 10.0629 142.355 10.0629 142.741 10.0629C143.64 10.0629 144.154 10.1915 144.54 10.3201C145.054 10.5773 145.31 10.963 145.567 11.6059C145.696 11.863 145.696 12.5059 145.696 13.2773L146.081 28.4493H145.953C143.255 25.7492 140.814 23.1777 138.501 20.7347C133.362 15.4631 129.893 11.863 128.094 9.93437C127.452 9.29149 127.066 8.90576 126.809 8.90576C126.552 8.90576 126.424 9.29148 126.424 10.0629L126.167 29.9922C126.167 31.5351 126.039 32.5637 125.91 33.078C125.782 33.7209 125.525 33.978 125.011 34.1066C124.625 34.1066 124.24 34.2352 123.854 34.2352C123.597 34.2352 123.34 34.2352 123.212 34.3638C123.34 34.3638 123.34 34.4923 123.34 34.6209C123.34 34.7495 123.212 34.7495 123.083 34.8781C123.212 35.0066 123.34 35.0066 123.726 35.0066C124.368 35.0066 125.268 35.0066 126.039 35.0066C126.938 35.0066 127.323 35.0066 127.323 35.0066C127.452 35.0066 127.966 35.0066 128.865 35.0066C129.764 35.0066 130.664 35.0066 131.563 35.0066C132.077 35.0066 132.334 34.8781 132.334 34.6209C132.334 34.4923 132.077 34.3638 131.306 34.2352Z" fill="#0A3647"/>
<path d="M123.469 34.621C123.469 34.4924 123.469 34.4924 123.341 34.3638C123.212 34.3638 123.083 34.4924 123.083 34.621C123.083 34.7497 123.084 34.7497 123.212 34.8783C123.341 34.8783 123.469 34.7497 123.469 34.621Z" fill="#0A3647"/>
<path d="M168.18 26.3917L170.878 33.592C171.007 33.9777 170.878 34.2349 170.621 34.3634C170.364 34.3634 170.107 34.492 170.107 34.6206C170.107 34.7492 170.493 34.8777 171.135 34.8777C172.548 34.8777 174.732 35.0063 177.559 35.0063C178.201 35.0063 178.587 35.0063 178.715 34.8777C178.972 34.8777 179.101 34.7492 179.101 34.6206C179.101 34.492 178.972 34.3634 178.715 34.3634C178.201 34.3634 177.687 34.3634 177.302 34.2349C176.274 33.9777 175.246 32.8205 174.347 30.5062C170.878 21.8916 168.051 14.9485 165.996 9.80547C165.739 9.03401 165.353 8.77686 165.096 8.77686C164.84 8.77686 164.454 9.29117 164.197 10.1912L155.717 31.4062C155.332 32.4348 154.947 33.0777 154.561 33.4634C154.047 33.9777 153.533 34.3634 152.762 34.3634C152.377 34.3634 152.12 34.492 151.735 34.492C151.478 34.492 151.349 34.6206 151.349 34.7492C151.349 35.0063 151.606 35.1349 151.992 35.1349C152.634 35.1349 154.047 35.1349 155.974 35.0063C156.36 35.0063 156.874 35.0063 157.773 35.0063C158.672 35.0063 159.186 35.0063 159.572 35.0063C159.957 35.0063 160.086 34.8777 160.086 34.6206C160.086 34.492 159.957 34.3634 159.572 34.3634H159.058C158.159 34.3634 157.645 33.9777 157.645 33.3348C157.645 32.8205 157.773 32.1776 158.159 31.2776L159.957 26.3917C160.086 26.2632 160.086 26.1346 160.214 26.1346H167.795C167.923 26.1346 168.051 26.2632 168.18 26.3917ZM167.152 24.4631H160.985C160.857 24.4631 160.857 24.3345 160.857 24.2059L163.94 15.8485C163.94 15.5914 164.069 15.5914 164.197 15.5914C164.326 15.5914 164.326 15.7199 164.326 15.8485L167.409 24.2059C167.409 24.4631 167.281 24.4631 167.152 24.4631Z" fill="#0A3647"/>
<path d="M180.514 10.063C181.413 10.063 181.927 10.1915 182.313 10.4487C182.698 10.7058 182.955 11.3487 183.084 12.1202C183.084 12.8916 183.212 15.206 183.212 19.3204V25.2349C183.212 29.0922 183.212 31.5351 183.084 32.4351C182.955 33.5923 182.57 34.2352 182.056 34.2352C181.67 34.2352 181.413 34.2352 181.028 34.3638C180.514 34.3638 180.257 34.4924 180.257 34.6209C180.257 34.8781 180.514 35.0067 180.899 35.0067C181.413 35.0067 182.184 35.0067 183.212 35.0067C184.24 35.0067 184.882 35.0067 185.139 35.0067C185.91 35.0067 187.195 35.0066 189.251 35.1352C191.306 35.2638 193.105 35.2638 194.904 35.2638C195.675 35.2638 196.06 35.2638 196.189 35.1352C196.574 35.0066 196.831 34.7495 196.959 34.2352C197.345 32.9494 197.473 31.6637 197.473 30.3779C197.473 29.9922 197.345 29.8636 197.216 29.8636C196.959 29.8636 196.831 29.9922 196.831 30.3779C196.702 31.1494 196.446 31.9208 195.932 32.4351C195.289 33.078 194.004 33.3352 191.949 33.3352C189.765 33.3352 188.48 33.078 187.837 32.5637C187.58 32.3066 187.323 31.5351 187.195 30.3779C187.066 29.6065 187.067 27.935 187.067 25.3635V19.449C187.067 15.4631 187.066 13.0202 187.195 12.2488C187.323 11.0916 187.709 10.4487 188.48 10.3201C188.865 10.1915 189.251 10.1915 189.765 10.1915C190.15 10.1915 190.407 10.063 190.407 9.93439C190.407 9.67724 190.15 9.67725 189.636 9.67725C189.122 9.67725 188.351 9.67725 187.195 9.67725C186.039 9.67725 185.268 9.67725 185.139 9.67725C184.882 9.67725 184.24 9.67725 183.084 9.67725C181.927 9.67725 181.156 9.67725 180.514 9.67725C180 9.67725 179.743 9.80582 179.743 9.93439C180 9.93439 180.129 10.063 180.514 10.063Z" fill="#0A3647"/>
<path d="M213.533 35.3924C217.773 35.3924 221.113 34.1066 223.683 31.4065C226.252 28.835 227.409 25.492 227.409 21.6348C227.409 17.7775 226.124 14.6917 223.683 12.3773C221.242 10.0629 217.901 8.90576 213.79 8.90576C209.165 8.90576 205.567 10.4487 202.998 13.4059C200.942 15.8489 199.786 18.8061 199.786 22.1491C199.786 25.6206 200.813 28.5778 202.998 31.0208C205.567 33.978 209.036 35.3924 213.533 35.3924ZM207.237 12.763C208.651 11.3487 210.578 10.5773 212.891 10.5773C215.717 10.5773 218.03 11.6059 219.957 13.7916C221.884 16.106 222.784 19.0632 222.784 22.7919C222.784 27.0349 221.756 30.1207 219.7 31.9208C218.415 33.078 216.745 33.7209 214.946 33.7209C211.734 33.7209 209.293 32.4351 207.366 29.9922C205.567 27.6778 204.539 24.7206 204.539 21.1205C204.539 17.3918 205.439 14.5631 207.237 12.763Z" fill="#0A3647"/>
<path d="M257.345 22.278C256.96 22.278 256.317 22.278 255.289 22.278C254.39 22.278 253.748 22.278 253.362 22.278C253.105 22.278 252.334 22.278 251.178 22.278C250.022 22.278 249.122 22.278 248.48 22.278C247.966 22.278 247.709 22.4065 247.709 22.6637C247.709 22.7923 247.838 22.9208 248.223 22.9208C248.737 22.9208 249.251 22.9208 249.508 23.0494C250.407 23.3066 250.921 23.9494 250.921 24.9781C250.921 25.7495 250.921 27.0353 250.921 28.9639V32.1783C250.921 32.564 250.793 32.8212 250.664 33.0783C250.407 33.5926 249.251 33.8498 247.452 33.8498C243.983 33.8498 241.157 32.6926 238.973 30.2497C236.788 27.8067 235.761 24.8495 235.761 21.1208C235.761 17.3921 236.788 14.5634 238.844 12.8919C240.514 11.4776 242.698 10.8347 245.525 10.8347C247.195 10.8347 248.865 11.0919 250.407 11.7347C251.564 12.249 252.463 12.7634 253.105 13.4062C253.748 14.0491 254.133 14.9491 254.262 16.2349C254.262 16.492 254.39 16.6206 254.647 16.6206C254.904 16.6206 255.032 16.3635 255.032 15.8492C255.032 14.1777 255.032 12.7634 255.161 11.6062C255.161 10.8347 255.289 10.3204 255.289 10.3204C255.289 10.0633 255.161 9.93469 254.776 9.93469C254.005 9.93469 253.105 9.80611 252.077 9.54896C250.279 9.16324 248.223 9.03467 246.167 9.03467C242.57 9.03467 239.486 9.80612 237.045 11.2205C235.375 12.2491 233.962 13.6634 232.934 15.4635C231.778 17.5207 231.135 19.835 231.135 22.278C231.135 26.6495 232.677 29.9925 235.761 32.4354C238.587 34.4927 242.185 35.5213 246.681 35.5213C250.15 35.5213 252.848 35.007 254.776 33.9784C255.032 33.8498 255.161 33.4641 255.161 32.8212V29.0925C255.161 27.1638 255.161 25.7495 255.161 24.9781C255.161 23.8209 255.675 23.178 256.446 23.0494C256.831 22.9208 257.217 22.9208 257.474 22.9208C257.731 22.9208 257.859 22.7923 257.859 22.6637C257.987 22.4065 257.731 22.278 257.345 22.278Z" fill="#0A3647"/>
<path d="M272.12 34.3647C271.606 34.3647 271.092 34.3647 270.45 34.2362C269.679 34.1076 269.165 33.5933 269.165 32.5647C269.037 31.6646 269.037 29.2217 269.037 25.1073V19.1928C269.037 15.207 269.037 12.764 269.165 11.9926C269.294 10.8354 269.679 10.1925 270.45 10.0639C270.835 9.93535 271.221 9.93536 271.478 9.93536C271.863 9.93536 271.992 9.80678 271.992 9.54963C271.992 9.42105 271.735 9.29248 271.221 9.29248C270.707 9.29248 270.064 9.29248 269.037 9.29248C268.009 9.29248 267.366 9.29248 267.109 9.29248C266.852 9.29248 266.082 9.29248 265.054 9.29248C264.026 9.29248 263.255 9.29248 262.741 9.29248C262.227 9.29248 261.97 9.42105 261.97 9.54963C261.97 9.80678 262.227 9.93536 262.613 9.93536C262.998 9.93536 263.383 9.93535 263.769 10.0639C264.411 10.1925 264.797 10.8354 264.925 11.9926C264.925 12.764 265.054 15.0784 265.054 19.1928V25.1073C265.054 28.9646 265.054 31.5361 264.925 32.4361C264.797 33.4647 264.54 33.979 263.897 34.1076C263.512 34.1076 263.255 34.1076 262.87 34.2362C262.356 34.2362 262.099 34.3647 262.099 34.4933C262.099 34.7505 262.356 34.879 262.741 34.879C263.255 34.879 264.026 34.879 265.054 34.879C266.082 34.879 266.724 34.879 266.981 34.879C267.238 34.879 267.88 34.879 269.165 34.879C270.45 34.879 271.478 34.879 272.249 34.879C272.634 34.879 272.891 34.7505 272.891 34.4933C272.634 34.4933 272.506 34.3647 272.12 34.3647Z" fill="#0A3647"/>
<path d="M299.486 28.7074C299.229 28.7074 299.101 28.9646 299.101 29.3503C298.972 30.1217 298.587 30.8932 297.944 31.5361C297.302 32.3075 296.274 32.9504 295.118 33.2076C294.347 33.3361 293.191 33.4647 291.777 33.4647C289.208 33.4647 286.895 32.4361 284.711 30.5075C282.27 28.1931 281.114 25.2359 281.114 21.5072C281.114 17.5213 282.141 14.6927 284.197 12.764C285.739 11.3497 287.795 10.7068 290.493 10.7068C292.034 10.7068 293.448 10.964 294.732 11.3497C295.889 11.7354 296.788 12.2497 297.43 12.8926C298.33 13.7926 298.715 14.8212 298.715 15.9784C298.715 16.4927 298.844 16.7499 299.101 16.7499C299.358 16.7499 299.486 16.4927 299.486 15.9784C299.486 14.5641 299.615 13.2783 299.615 12.3783C299.615 11.864 299.743 11.4783 299.743 11.0925C299.743 10.8354 299.872 10.5782 299.872 10.5782C299.872 10.3211 299.743 10.1925 299.358 10.1925C297.944 9.93536 296.788 9.80679 296.017 9.67821C294.347 9.42106 292.677 9.29248 291.135 9.29248C286.638 9.29248 283.041 10.4497 280.471 12.8926C277.902 15.3355 276.488 18.4214 276.488 22.1501C276.488 26.3931 277.902 29.736 280.728 32.179C283.555 34.6219 287.409 35.7791 292.291 35.7791C295.118 35.7791 297.045 35.5219 298.33 35.0076C298.715 34.8791 299.101 34.4933 299.229 33.979C299.358 33.4647 299.486 32.6933 299.743 31.5361C299.872 30.5075 300 29.8646 300 29.6075C299.743 28.836 299.615 28.7074 299.486 28.7074Z" fill="#0A3647"/>
<path d="M120.386 73.3224C120.129 73.3224 119.743 73.3224 119.101 73.1938C118.201 73.0653 116.788 72.6796 114.989 70.7509C113.062 68.6937 110.75 65.6079 107.923 62.1363C111.007 59.3077 112.034 56.8647 112.034 54.2932C112.034 51.9789 110.493 50.3074 109.722 49.6645C107.923 48.3787 105.61 48.1216 103.555 48.1216C102.527 48.1216 99.9574 48.2502 99.5719 48.2502C99.4435 48.2502 97.2593 48.1216 95.7175 48.1216C95.3321 48.1216 95.2036 48.2502 95.2036 48.3787C95.2036 48.5073 95.3321 48.6359 95.4606 48.6359C95.7175 48.6359 96.3599 48.6359 96.6169 48.7645C97.7732 49.0216 98.0302 49.5359 98.0302 50.6931C98.1586 51.7217 98.1586 52.7503 98.1586 58.0219V63.9364C98.1586 67.1508 98.1586 69.8509 98.0302 71.2652C97.9017 72.2938 97.7732 72.9367 97.0023 73.0653C96.7454 73.1938 96.2315 73.1938 95.9745 73.1938C95.7175 73.1938 95.7175 73.3224 95.7175 73.451C95.7175 73.7081 95.846 73.7081 96.2315 73.7081C97.2593 73.7081 99.315 73.5796 99.4434 73.5796C99.5719 73.5796 101.756 73.7081 103.555 73.7081C103.94 73.7081 104.069 73.5796 104.069 73.451C104.069 73.3224 103.94 73.1938 103.812 73.1938C103.555 73.1938 102.784 73.0653 102.27 73.0653C101.242 72.9367 101.114 72.1652 100.985 71.2652C100.857 69.8509 100.857 67.1508 100.857 63.9364V63.1649C100.857 63.0364 100.985 62.9078 101.114 62.9078L105.225 63.0364C105.482 63.0364 105.482 63.1649 105.61 63.2935C106.253 64.1936 107.923 66.3793 109.336 68.308C111.264 70.8795 112.42 72.551 113.833 73.3224C114.733 73.8367 115.503 73.9653 117.431 73.9653H119.872C120.514 73.9653 120.643 73.8367 120.643 73.7081C120.771 73.451 120.514 73.3224 120.386 73.3224ZM107.152 61.3649C106.381 61.8792 105.482 62.0078 104.583 62.0078C103.041 62.0078 101.499 61.7506 100.985 61.4935C100.857 61.3649 100.728 61.2363 100.728 61.1077V50.0502C100.728 49.7931 100.857 49.6645 100.985 49.6645C101.371 49.5359 102.27 49.4073 103.298 49.4073C106.895 49.4073 109.079 51.9789 109.079 56.2219C109.208 58.6648 108.309 60.4649 107.152 61.3649Z" fill="#0A3647"/>
<path d="M129.379 73.3228C129.122 73.3228 128.352 73.1942 127.838 73.1942C126.81 73.0656 126.681 72.2941 126.553 71.3941C126.424 69.9798 126.424 67.2797 126.424 64.0653V58.1508C126.424 52.8792 126.424 51.9792 126.553 50.822C126.681 49.6648 126.938 49.0219 127.838 48.8934C128.223 48.7648 128.48 48.7648 128.737 48.7648C128.866 48.7648 128.994 48.6362 128.994 48.5076C128.994 48.2505 128.866 48.2505 128.48 48.2505C127.452 48.2505 125.397 48.3791 125.14 48.3791C125.011 48.3791 122.827 48.2505 121.671 48.2505C121.285 48.2505 121.157 48.3791 121.157 48.5076C121.157 48.6362 121.285 48.7648 121.414 48.7648C121.671 48.7648 122.056 48.7648 122.442 48.8934C123.212 49.0219 123.469 49.6648 123.598 50.822C123.726 51.8506 123.726 52.8792 123.726 58.1508V64.0653C123.726 67.2797 123.726 69.9798 123.598 71.3941C123.469 72.4227 123.341 73.0656 122.57 73.1942C122.313 73.3227 121.799 73.3228 121.542 73.3228C121.285 73.3228 121.285 73.4513 121.285 73.5799C121.285 73.8371 121.414 73.837 121.799 73.837C122.827 73.837 124.883 73.7085 125.14 73.7085C125.268 73.7085 127.452 73.837 129.251 73.837C129.636 73.837 129.765 73.7085 129.765 73.5799C129.636 73.4513 129.636 73.3228 129.379 73.3228Z" fill="#0A3647"/>
<path d="M158.673 61.1081C157.645 61.1081 155.589 61.2366 155.332 61.2366C155.204 61.2366 153.02 61.1081 151.478 61.1081C151.093 61.1081 150.964 61.2366 150.964 61.3652C150.964 61.4938 151.093 61.6223 151.221 61.6223C151.478 61.6223 152.12 61.6224 152.377 61.7509C153.791 62.1367 153.919 62.5224 153.919 65.2225V71.0084C153.919 71.5227 153.662 71.9084 153.277 72.1656C152.377 72.6799 150.707 72.937 149.422 72.937C146.339 72.937 143.255 71.9084 140.557 69.3369C139.401 68.1797 136.96 64.7082 136.96 59.9509C136.96 55.965 138.373 52.8792 140.3 51.3363C142.87 49.2791 145.44 49.1505 147.495 49.1505C151.863 49.1505 154.562 50.5648 155.461 51.8506C155.975 52.622 156.103 53.6507 156.232 54.0364C156.232 54.2935 156.36 54.5507 156.489 54.5507C156.746 54.5507 156.746 54.4221 156.746 53.7792C156.746 50.4362 157.003 49.4076 157.003 49.0219C157.003 48.8933 156.874 48.7648 156.617 48.7648C155.718 48.7648 154.562 48.6362 153.919 48.379C153.277 48.2505 150.836 47.8647 148.78 47.8647C146.21 47.8647 142.87 48.1219 139.786 50.0505C136.831 51.9792 134.133 55.7079 134.133 61.1081C134.133 65.351 136.061 68.9512 138.116 70.7512C141.842 73.9656 146.596 74.3513 149.165 74.3513C151.093 74.3513 154.176 73.9656 156.36 72.8084C156.746 72.5513 156.746 72.5513 156.746 71.0084V67.2797C156.746 65.8653 156.746 64.8367 156.874 63.8081C157.003 62.6509 157.26 62.0081 158.159 61.8795C158.544 61.7509 158.801 61.7509 159.058 61.7509C159.187 61.7509 159.315 61.6223 159.315 61.4938C159.187 61.2366 159.058 61.1081 158.673 61.1081Z" fill="#0A3647"/>
<path d="M190.407 73.3228C190.15 73.3228 189.379 73.1942 188.865 73.1942C187.837 73.0656 187.709 72.2941 187.581 71.3941C187.452 69.9798 187.452 67.2797 187.452 64.0653V58.1508C187.452 52.8792 187.452 51.9792 187.581 50.822C187.709 49.6648 187.966 49.0219 188.865 48.8934C189.251 48.7648 189.508 48.7648 189.765 48.7648C189.893 48.7648 190.022 48.6362 190.022 48.5076C190.022 48.2505 189.893 48.2505 189.508 48.2505C188.48 48.2505 186.424 48.3791 186.167 48.3791C186.039 48.3791 183.855 48.2505 182.313 48.2505C181.927 48.2505 181.799 48.3791 181.799 48.5076C181.799 48.6362 181.927 48.7648 182.056 48.7648C182.313 48.7648 182.955 48.7648 183.212 48.8934C184.369 49.1505 184.625 49.6648 184.625 50.822C184.754 51.8506 184.754 52.8792 184.754 58.1508V58.9223C184.754 59.0508 184.625 59.1794 184.497 59.1794H170.236C170.107 59.1794 169.979 59.1794 169.979 58.9223V58.1508C169.979 52.8792 169.979 51.9792 170.107 50.822C170.236 49.6648 170.493 49.0219 171.392 48.8934C171.778 48.7648 172.034 48.7648 172.291 48.7648C172.42 48.7648 172.548 48.6362 172.548 48.5076C172.548 48.2505 172.42 48.2505 172.034 48.2505C171.007 48.2505 168.951 48.3791 168.694 48.3791C168.566 48.3791 166.381 48.2505 164.84 48.2505C164.454 48.2505 164.326 48.3791 164.326 48.5076C164.326 48.6362 164.454 48.7648 164.583 48.7648C164.84 48.7648 165.482 48.7648 165.739 48.8934C166.895 49.1505 167.152 49.6648 167.152 50.822C167.281 51.8506 167.281 52.8792 167.281 58.1508V64.0653C167.281 67.2797 167.281 69.9798 167.152 71.3941C167.024 72.4227 166.895 73.0656 166.124 73.1942C165.867 73.3227 165.354 73.3228 165.097 73.3228C164.84 73.3228 164.84 73.4513 164.84 73.5799C164.84 73.8371 164.968 73.837 165.354 73.837C166.381 73.837 168.437 73.7085 168.694 73.7085C168.822 73.7085 171.007 73.837 172.805 73.837C173.191 73.837 173.319 73.7085 173.319 73.5799C173.319 73.4513 173.191 73.3228 173.062 73.3228C172.805 73.3228 172.034 73.1942 171.521 73.1942C170.493 73.0656 170.364 72.2941 170.236 71.3941C170.107 69.9798 170.107 67.2797 170.107 64.0653V60.4652C170.107 60.3366 170.236 60.208 170.364 60.208H184.625C184.754 60.208 184.882 60.3366 184.882 60.4652V64.0653C184.882 67.2797 184.882 69.9798 184.754 71.3941C184.625 72.4227 184.497 73.0656 183.726 73.1942C183.469 73.3227 182.955 73.3228 182.698 73.3228C182.441 73.3228 182.441 73.4513 182.441 73.5799C182.441 73.8371 182.57 73.837 182.955 73.837C183.983 73.837 186.039 73.7085 186.296 73.7085C186.424 73.7085 188.608 73.837 190.407 73.837C190.792 73.837 190.921 73.7085 190.921 73.5799C190.664 73.4513 190.536 73.3228 190.407 73.3228Z" fill="#0A3647"/>
<path d="M215.46 48.1217C215.203 48.1217 214.304 48.5075 212.12 48.5075H199.529C199.143 48.5075 197.859 48.3789 196.831 48.3789C195.931 48.2503 195.546 47.9932 195.289 47.9932C195.161 47.9932 195.032 48.3789 194.904 48.636C194.775 48.8932 194.133 51.8505 194.133 52.1076C194.133 52.3648 194.261 52.3648 194.261 52.3648C194.39 52.3648 194.518 52.2362 194.647 51.979C194.775 51.7219 194.904 51.4647 195.161 50.9504C195.675 50.179 196.445 49.9218 198.63 49.9218L203.64 49.7932V64.0651C203.64 67.2795 203.64 69.9796 203.512 71.394C203.383 72.4226 203.255 73.0654 202.484 73.194C202.227 73.3226 201.713 73.3226 201.456 73.3226C201.199 73.3226 201.199 73.4512 201.199 73.5797C201.199 73.8369 201.328 73.8369 201.713 73.8369C202.741 73.8369 204.797 73.7083 205.054 73.7083C205.182 73.7083 207.366 73.8369 209.165 73.8369C209.55 73.8369 209.679 73.7083 209.679 73.5797C209.679 73.4512 209.55 73.3226 209.422 73.3226C209.165 73.3226 208.394 73.194 207.88 73.194C206.852 73.0654 206.724 72.294 206.595 71.394C206.467 69.9796 206.467 67.2795 206.467 64.0651V49.7932L210.707 49.9218C213.919 50.0504 214.69 50.8218 214.818 51.7219V52.1076C214.818 52.6219 214.947 52.6219 215.075 52.6219C215.203 52.6219 215.332 52.4933 215.332 52.2362C215.332 51.8504 215.46 49.5361 215.46 48.5075C215.589 48.2503 215.589 48.1217 215.46 48.1217Z" fill="#0A3647"/>
<path d="M227.666 59.3077L226.767 58.5362C223.555 55.9647 222.655 54.8075 222.655 52.8789C222.655 50.4359 224.454 49.0216 226.767 49.0216C229.85 49.0216 230.75 50.4359 231.006 50.8217C231.263 51.2074 231.392 52.1074 231.392 52.4931C231.392 52.7503 231.52 52.8789 231.649 52.8789C231.777 52.8789 231.906 52.6217 231.906 52.1074C231.906 49.7931 232.034 48.6359 232.034 48.5073C232.034 48.3787 231.906 48.2502 231.649 48.2502C231.392 48.2502 231.135 48.2501 230.493 48.1216C229.593 47.8644 228.694 47.7358 227.409 47.7358C223.169 47.7358 220.471 50.1788 220.471 53.7789C220.471 56.0933 221.242 58.1505 224.839 61.1077L226.381 62.3935C229.336 64.8364 230.236 66.1222 230.236 68.4365C230.236 70.6223 228.694 72.9367 225.353 72.9367C223.041 72.9367 220.857 72.0367 220.343 69.4652C220.214 68.9508 220.214 68.5651 220.214 68.1794C220.214 67.9222 220.214 67.7937 219.957 67.7937C219.829 67.7937 219.7 67.9222 219.7 68.308C219.7 68.8223 219.572 70.2366 219.572 71.9081C219.572 72.8081 219.572 72.9367 220.086 73.1938C221.499 73.8367 223.041 74.0939 224.582 74.0939C226.381 74.0939 228.18 73.7081 229.722 72.6795C232.034 71.0081 232.548 68.4365 232.548 67.0222C232.548 64.5793 231.649 62.522 227.666 59.3077Z" fill="#0A3647"/>
<path d="M34.561 30.6358C34.6895 29.35 35.0749 28.7072 35.8458 28.5786C36.2313 28.45 36.7452 28.45 37.2591 28.45C37.6445 28.45 37.9015 28.3214 37.9015 28.1929C37.9015 27.9357 37.6445 27.8071 37.1306 27.8071C36.6167 27.8071 35.7173 27.8071 34.4325 27.8071C33.1477 27.8071 32.3769 27.8071 32.1199 27.8071C31.863 27.8071 31.0921 27.8071 29.9357 27.8071C28.7794 27.8071 27.8801 27.8071 27.2377 27.8071C26.7238 27.8071 26.4668 27.9357 26.4668 28.1929C26.4668 28.45 26.7238 28.45 27.1092 28.45C28.0086 28.45 28.651 28.5786 29.0364 28.8357C29.5503 29.0929 29.8073 29.7358 29.8073 30.6358C29.8073 31.4072 29.9357 33.9788 29.9357 38.3503V44.6506C29.9357 48.8936 29.9358 51.4651 29.8073 52.3651C29.6788 53.5223 29.2934 54.2937 28.7794 54.2937C28.394 54.2937 28.0086 54.2937 27.7516 54.4223C27.2377 54.4223 26.9807 54.5509 26.9807 54.808C26.9807 55.0652 27.2377 55.1938 27.7516 55.1938C28.2655 55.1938 29.1649 55.1938 30.3212 55.1938C31.4775 55.1938 32.1199 55.1938 32.3769 55.1938C33.1477 55.1938 34.6895 55.1938 36.7452 55.3223C38.8008 55.4509 40.985 55.4509 42.9122 55.4509C43.6831 55.4509 44.197 55.4509 44.3255 55.3223C44.7109 55.1938 45.0964 54.9366 45.2248 54.4223C45.6103 53.1365 45.7387 51.7222 45.7387 50.3079C45.7387 49.9222 45.6103 49.665 45.4818 49.665C45.2248 49.665 45.0964 49.7936 45.0964 50.1793C44.9679 51.0793 44.7109 51.7222 44.197 52.3651C43.5546 53.008 42.1413 53.3937 39.9572 53.3937C37.6445 53.3937 36.2313 53.1366 35.5889 52.6223C35.2034 52.3651 35.0749 51.5937 34.9465 50.1793C34.818 49.2793 34.818 47.4792 34.818 44.7791V38.4789C34.4325 33.9788 34.4325 31.4072 34.561 30.6358Z" fill="#0A3647"/>
<path d="M68.0941 34.3638C68.0941 33.2067 67.8371 32.178 67.1947 31.278C66.6808 30.5066 66.1669 29.8637 65.653 29.478C64.1112 28.4494 61.9271 27.9351 58.972 27.9351C58.5866 27.9351 57.8157 27.9351 56.4024 27.9351C55.1177 27.9351 54.2183 27.9351 53.8329 27.9351C53.7044 27.9351 53.062 27.9351 51.7772 27.9351C50.6209 27.9351 49.593 27.9351 48.8222 27.9351C48.3082 27.9351 48.0513 28.0636 48.0513 28.3208C48.0513 28.5779 48.3082 28.5779 48.6937 28.5779C49.3361 28.5779 49.7215 28.5779 50.107 28.7065C51.1348 28.9637 51.6487 29.6065 51.6487 30.7637C51.6487 31.5352 51.7772 34.1067 51.7772 38.4783V44.7785C51.7772 49.0215 51.7772 51.593 51.6487 52.493C51.5202 53.6502 51.1348 54.4216 50.6209 54.4216C50.2354 54.4216 49.85 54.4217 49.593 54.5502C49.0791 54.5502 48.8222 54.6788 48.8222 54.936C48.8222 55.1931 49.0791 55.3217 49.593 55.3217C50.1069 55.3217 51.0063 55.3217 52.0341 55.3217C53.1905 55.3217 53.8329 55.3217 53.9613 55.3217C53.9613 55.3217 54.7322 55.3217 56.017 55.3217C57.3018 55.3217 58.4581 55.3217 59.229 55.3217C59.7429 55.3217 59.9999 55.1931 59.9999 54.936C59.9999 54.8074 59.8714 54.6788 59.6144 54.6788C59.1005 54.6788 58.5866 54.6788 57.8157 54.5502C57.0449 54.4217 56.5309 53.7788 56.4024 52.6216C56.274 51.593 56.274 49.0215 56.274 44.9071V44.2642C56.274 44.007 56.4025 44.007 56.5309 44.007H59.6144C59.8714 44.007 60.1284 44.1356 60.2568 44.2642C61.6701 46.0642 62.8264 47.7357 63.8543 49.2786C66.0384 52.2359 67.5802 53.9074 68.865 54.5502C69.7643 55.0645 71.0491 55.1931 72.7194 55.1931H76.1883C76.7022 55.1931 76.8307 55.0645 76.8307 54.8074C76.8307 54.6788 76.5737 54.5502 76.1883 54.4216C75.9314 54.4216 75.6744 54.4217 75.4174 54.2931C74.0042 54.0359 72.7194 53.2645 71.3061 51.8501C70.4067 50.9501 69.2504 49.5358 67.8371 47.7357C67.5802 47.4786 66.1669 45.6785 63.4688 42.3355C66.5523 39.8926 68.0941 37.1925 68.0941 34.3638ZM61.6701 41.5641C61.1562 41.9498 60.2568 42.207 59.1005 42.207C57.9442 42.207 57.0448 42.0784 56.4024 41.8212C56.1455 41.6927 56.017 41.5641 56.017 41.1784V30.1208C56.017 29.8637 56.017 29.7351 56.1455 29.7351C56.4025 29.6065 57.0448 29.478 58.2012 29.478C59.6144 29.478 60.7708 29.9923 61.7986 30.8923C63.0834 32.0495 63.7258 33.8495 63.7258 36.1639C63.8543 38.7354 63.0834 40.5355 61.6701 41.5641Z" fill="#0A3647"/>
<path d="M0.385423 0.677246V40.4071L2.95502 33.8498V3.37732H79.272V79.7513H2.95502V53.779L3.21199 53.0076L4.11135 50.4361L5.6531 46.4502C5.78158 46.3216 5.78157 46.193 5.91005 46.193H14.0043C14.1328 46.193 14.2612 46.3216 14.3897 46.4502L17.3448 54.0362C17.4732 54.4219 17.3448 54.8076 16.9593 54.9362C16.5739 54.9362 16.4454 55.0648 16.4454 55.1933C16.4454 55.3219 16.8308 55.4505 17.4732 55.4505C19.015 55.4505 21.3276 55.5791 24.2827 55.5791C24.9251 55.5791 25.3105 55.5791 25.5674 55.4505C25.8244 55.4505 25.9529 55.3219 25.9529 55.1933C25.9529 54.9362 25.8244 54.9362 25.439 54.9362C24.7966 54.9362 24.4111 54.8076 23.8972 54.8076C22.7409 54.5505 21.7131 53.2647 20.6852 50.8218C16.9593 41.5643 14.0043 34.1069 11.6916 28.5782C11.3062 27.8067 11.0492 27.421 10.7923 27.421C10.5353 27.421 10.1499 27.9353 9.76444 28.8353L6.9379 35.7784L6.42398 37.1927L5.0107 40.9214L4.75374 41.6929L2.69806 46.7073L1.54175 49.536L0.642398 51.7218C0.513919 51.979 0.385423 52.2361 0.385423 52.3647C0.256944 52.6218 0.12848 52.879 0 53.0076V82.3228H81.4561V0.80581H0.385423V0.677246ZM7.32334 42.3358L7.83725 41.05L8.99358 37.9642L10.0214 35.1355C10.0214 34.8784 10.1499 34.7498 10.2784 34.7498C10.4069 34.7498 10.4068 34.8784 10.4068 35.1355L11.6916 38.7356L13.4904 43.7501L13.6188 44.0073C13.6188 44.1358 13.6188 44.1358 13.4904 44.1358C13.4904 44.1358 13.4904 44.1358 13.3619 44.1358H6.68094C6.55246 44.1358 6.55245 44.0073 6.55245 43.8787L7.32334 42.3358Z" fill="#0A3647"/>
</svg>
