<svg width="126" height="177" viewBox="0 0 126 177" fill="none" xmlns="http://www.w3.org/2000/svg">
<path fill-rule="evenodd" clip-rule="evenodd" d="M95.9735 47.8865L95.818 95.7872H87.5145H79.2118V59.2507V22.7149L74.7903 20.5654L70.3688 18.4159V14.9102V11.4046L75.7114 8.94714C78.6502 7.59528 84.2043 5.03277 88.0547 3.25228C91.9051 1.4718 95.2971 0.0085178 95.5918 2.12012e-06C95.8873 -0.00780392 96.059 21.5411 95.9735 47.8865ZM61.8723 19.464C68.3453 22.4537 73.7446 24.9985 73.8699 25.1198C74.0482 25.2909 74.1588 63.2992 74.0652 92.0616L74.0534 95.7872H67.4212H60.789V65.9823C60.789 49.5896 60.562 36.1774 60.2842 36.1774C60.0064 36.1774 57.537 37.2951 54.7957 38.6612C52.0544 40.0272 49.6285 41.1449 49.4052 41.1449C49.1812 41.1449 48.9984 34.8987 48.9984 27.2651C48.9984 19.6315 49.2475 13.53 49.5511 13.7067C49.8547 13.8834 55.4 16.4743 61.8723 19.464ZM84.1859 23.4522C81.9383 24.5947 81.4225 25.2511 81.4225 26.9692C81.4225 29.3628 82.0533 29.5373 85.1439 27.9981C86.9184 27.1146 87.3178 26.4625 87.3178 24.4499C87.3178 23.0938 87.2345 21.9988 87.1336 22.0159C87.0326 22.0336 85.7062 22.6794 84.1859 23.4522ZM84.7342 29.6679C84.9346 29.8609 84.3539 30.374 83.4446 30.8083C82.3429 31.3342 81.7136 32.361 81.5603 33.8874C81.2965 36.5032 81.3459 36.5238 84.6612 35.1896C88.1741 33.7767 88.9375 29.279 85.6597 29.3067C84.9508 29.3124 84.5337 29.4756 84.7342 29.6679ZM84.0017 37.5236C82.4063 38.4199 81.7269 39.3935 81.5603 41.02C81.2913 43.6422 81.3009 43.645 84.7135 42.0781C86.9213 41.064 87.3178 40.524 87.3178 38.5299C87.3178 35.8666 87.0783 35.7942 84.0017 37.5236ZM56.3675 69.1757V95.7872H43.4716H30.5757V75.2133C30.5757 56.378 30.6847 54.577 31.8653 53.8915C32.8859 53.2996 55.4611 42.8346 56.1833 42.6196C56.2843 42.589 56.3675 54.5394 56.3675 69.1757ZM83.8175 44.5122C81.8359 45.4624 81.4225 46.067 81.4225 48.0149C81.4225 50.7556 81.3363 50.7258 84.7135 49.1745C86.9213 48.1604 87.3178 47.6204 87.3178 45.6263C87.3178 42.9715 87.1461 42.9169 83.8175 44.5122ZM83.8175 51.6086C81.8359 52.5588 81.4225 53.1634 81.4225 55.1113C81.4225 57.852 81.3363 57.8222 84.7135 56.2709C86.9213 55.2568 87.3178 54.7168 87.3178 52.7227C87.3178 50.0679 87.1461 50.0133 83.8175 51.6086ZM65.3947 52.2039C63.5038 53.0009 62.9997 53.6353 62.9997 55.2213C62.9997 57.9669 63.3844 58.1543 66.3114 56.8351C68.4263 55.882 68.8508 55.31 68.8707 53.3862C68.898 50.818 68.7815 50.7783 65.3947 52.2039ZM37.3921 56.576C35.5388 57.4645 34.9971 58.1763 34.9971 59.724C34.9971 61.9785 35.6611 62.1645 38.5564 60.7225C40.003 60.0022 40.6176 59.1038 40.7421 57.5291C40.9389 55.0468 40.7163 54.9829 37.3921 56.576ZM83.8175 58.5907C81.9265 59.3876 81.4225 60.022 81.4225 61.6081C81.4225 64.3523 81.8094 64.5432 84.7614 63.2545C86.9265 62.3092 87.3178 61.7805 87.3178 59.8028C87.3178 57.2027 87.2058 57.1643 83.8175 58.5907ZM65.3947 59.3003C63.4581 60.1164 62.9997 60.7168 62.9997 62.4362C62.9997 64.8448 63.6276 65.0208 66.7211 63.4801C68.3895 62.6498 68.895 61.9069 68.895 60.2867C68.895 57.9236 68.7565 57.8846 65.3947 59.3003ZM45.4981 60.8339C43.5203 61.782 43.1032 62.3901 43.1032 64.3253V66.6693L45.6823 65.4849C47.8636 64.4828 48.2615 63.9378 48.2615 61.948C48.2615 60.6543 48.1783 59.6161 48.0773 59.641C47.9763 59.6658 46.815 60.203 45.4981 60.8339ZM37.0236 64.2593C35.5152 65.0477 34.9971 65.856 34.9971 67.4243C34.9971 69.8428 35.2897 69.9165 38.3132 68.2588C39.832 67.4257 40.5711 66.4365 40.6736 65.0953C40.8423 62.8883 40.0126 62.6981 37.0236 64.2593ZM83.8175 65.6871C81.8713 66.5067 81.4225 67.1 81.4225 68.85C81.4225 70.7724 81.6384 70.9817 83.4343 70.7993C86.4505 70.4928 87.8366 69.065 87.4681 66.6451C87.1107 64.3012 87.1092 64.3012 83.8175 65.6871ZM65.4433 66.3776C63.5215 67.1887 63.1088 67.755 63.1604 69.5135C63.2326 71.9568 63.6814 72.0902 66.7211 70.5765C68.3895 69.7462 68.895 69.0033 68.895 67.3831C68.895 65.025 68.7506 64.9831 65.4433 66.3776ZM45.1297 68.5172C43.6212 69.3056 43.1032 70.1138 43.1032 71.6821C43.1032 74.1176 43.1909 74.1481 46.0876 72.7054C47.756 71.8752 48.2615 71.1322 48.2615 69.5121C48.2615 67.1255 47.9705 67.0333 45.1297 68.5172ZM37.3921 71.5189C35.398 72.4415 34.9971 73.0234 34.9971 74.9962V77.3656L37.7782 75.9989C39.7826 75.0146 40.6028 74.1283 40.7148 72.8268C40.9197 70.4424 40.2705 70.1869 37.3921 71.5189ZM84.5544 72.1384C81.9995 73.5712 81.4225 74.2773 81.4225 75.9705C81.4225 78.3194 81.5271 78.3584 84.8064 77.2166C86.9235 76.4793 87.2176 76.0436 87.4431 73.3136C87.5823 71.6232 87.6943 70.2721 87.6914 70.3111C87.6884 70.3502 86.2765 71.1726 84.5544 72.1384ZM65.0705 73.4626C63.5664 74.2489 63.1294 74.9692 63.2599 76.4502C63.3925 77.9589 63.758 78.3449 64.8737 78.1526C67.7314 77.6601 68.895 76.5957 68.895 74.4732C68.895 72.125 68.0542 71.9021 65.0705 73.4626ZM45.4981 75.7363C43.5203 76.6844 43.1032 77.2925 43.1032 79.2277V81.5717L45.6823 80.3873C47.8636 79.3853 48.2615 78.8403 48.2615 76.8504C48.2615 75.5568 48.1783 74.5186 48.0773 74.5434C47.9763 74.5682 46.815 75.1054 45.4981 75.7363ZM37.0236 79.1618C35.5152 79.9502 34.9971 80.7584 34.9971 82.3267C34.9971 84.7878 34.8166 84.7296 38.2233 83.3593C40.4459 82.4644 40.8924 81.9308 40.8924 80.1659C40.8924 77.7929 40.0582 77.5764 37.0236 79.1618ZM83.449 79.8714C81.9405 80.6598 81.4225 81.4681 81.4225 83.0364C81.4225 85.4123 81.9221 85.5535 85.3841 84.1604C87.5455 83.2911 87.7857 82.9257 87.4873 80.9671C87.1129 78.5075 86.4195 78.3194 83.449 79.8714Z" fill="#0A3647"/>
<path d="M45.4616 115.373L35.826 147.284H30.9605L23.2329 121.6L15.2191 147.284L10.4013 147.33L1.09961 115.373H5.72661L12.9772 142.431L20.9909 115.373H25.8565L33.4886 142.34L40.7869 115.373H45.4616Z" fill="#0A3647"/>
<path d="M58.5217 115.373V147.284H54.181V115.373H58.5217Z" fill="#0A3647"/>
<path d="M83.3785 147.605C81.1842 147.605 79.2126 147.239 77.4635 146.506C75.7463 145.743 74.3948 144.705 73.409 143.393C72.4231 142.05 71.9143 140.508 71.8825 138.769H76.5095C76.6685 140.264 77.3045 141.531 78.4176 142.569C79.5624 143.576 81.216 144.08 83.3785 144.08C85.4455 144.08 87.0674 143.591 88.244 142.614C89.4524 141.607 90.0566 140.325 90.0566 138.769C90.0566 137.548 89.7068 136.556 89.0072 135.793C88.3076 135.03 87.4331 134.45 86.3836 134.053C85.3342 133.656 83.9191 133.229 82.1382 132.771C79.944 132.222 78.1791 131.672 76.8434 131.123C75.5396 130.574 74.4107 129.719 73.4566 128.559C72.5344 127.369 72.0733 125.782 72.0733 123.798C72.0733 122.058 72.5344 120.516 73.4566 119.173C74.3789 117.831 75.6668 116.793 77.3204 116.06C79.0059 115.328 80.9298 114.961 83.0923 114.961C86.2087 114.961 88.7528 115.709 90.7244 117.205C92.7279 118.7 93.8568 120.684 94.1112 123.157H89.3411C89.1821 121.936 88.5143 120.867 87.3377 119.952C86.161 119.006 84.6028 118.533 82.663 118.533C80.8503 118.533 79.3716 118.99 78.2268 119.906C77.0819 120.791 76.5095 122.043 76.5095 123.66C76.5095 124.82 76.8434 125.766 77.5112 126.499C78.2109 127.231 79.0536 127.796 80.0394 128.193C81.057 128.559 82.4722 128.986 84.2848 129.475C86.479 130.055 88.244 130.635 89.5796 131.214C90.9152 131.764 92.0601 132.634 93.0141 133.824C93.9681 134.984 94.4451 136.571 94.4451 138.586C94.4451 140.142 94.0158 141.607 93.1572 142.981C92.2986 144.354 91.0265 145.468 89.3411 146.323C87.6557 147.178 85.6681 147.605 83.3785 147.605Z" fill="#0A3647"/>
<path d="M112.09 118.761V129.429H124.206V132.863H112.09V143.851H125.638V147.284H107.75V115.328H125.638V118.761H112.09Z" fill="#0A3647"/>
<path d="M43.2761 168.895L40.1673 177H39.58L36.4712 168.895H37.093L39.3958 174.893C39.4611 175.067 39.5225 175.237 39.58 175.403C39.6376 175.566 39.6913 175.723 39.7412 175.875C39.7911 176.026 39.8353 176.172 39.8736 176.312C39.912 176.172 39.9542 176.03 40.0003 175.886C40.0502 175.738 40.1039 175.583 40.1615 175.42C40.2191 175.254 40.2824 175.076 40.3515 174.888L42.6486 168.895H43.2761Z" fill="#0A3647"/>
<path d="M53.5998 177V168.895H54.1927V177H53.5998Z" fill="#0A3647"/>
<path d="M68.8342 177H64.2343V168.895H68.8342V169.41H64.8273V172.482H68.6097V172.997H64.8273V176.484H68.8342V177Z" fill="#0A3647"/>
<path d="M89.6761 168.895L87.379 177H86.8033L85.0014 170.879C84.9591 170.75 84.9208 170.628 84.8862 170.513C84.8555 170.395 84.8248 170.284 84.7941 170.181C84.7672 170.074 84.7404 169.974 84.7135 169.881C84.6905 169.785 84.6713 169.698 84.6559 169.621C84.6406 169.698 84.6233 169.782 84.6041 169.87C84.5888 169.955 84.5696 170.044 84.5465 170.136C84.5235 170.229 84.4986 170.325 84.4717 170.425C84.4448 170.524 84.416 170.628 84.3853 170.735L82.5891 177H82.0077L79.7394 168.895H80.3496L81.9328 174.61C81.975 174.762 82.0134 174.906 82.048 175.043C82.0863 175.18 82.1209 175.313 82.1516 175.442C82.1823 175.568 82.2111 175.692 82.2379 175.814C82.2686 175.932 82.2955 176.052 82.3185 176.174C82.3454 176.052 82.3723 175.928 82.3991 175.802C82.426 175.677 82.4548 175.549 82.4855 175.42C82.52 175.291 82.5546 175.157 82.5891 175.021C82.6275 174.88 82.6697 174.734 82.7158 174.583L84.3681 168.895H84.9611L86.6767 174.616C86.7227 174.775 86.765 174.925 86.8033 175.065C86.8417 175.206 86.8763 175.34 86.907 175.47C86.9377 175.595 86.9664 175.719 86.9933 175.841C87.0202 175.96 87.0471 176.08 87.0739 176.202C87.1046 176.035 87.1353 175.873 87.166 175.714C87.2006 175.551 87.2409 175.381 87.2869 175.204C87.333 175.026 87.3848 174.832 87.4424 174.622L89.0601 168.895H89.6761Z" fill="#0A3647"/>
<path d="M0.362793 155.411H125.638V156.83H0.362793V155.411Z" fill="#0A3647"/>
</svg>
