<svg width="25" height="24" viewBox="0 0 25 24" fill="none" xmlns="http://www.w3.org/2000/svg">
<g clip-path="url(#clip0_1029_26165)">
<path d="M0.5 4.00018H24.5V19.9998H0.5V4.00018Z" fill="#F0F0F0"/>
<path d="M24.5 4.00018V12H12.5L0.5 4.00018H24.5Z" fill="#0052B4"/>
<path d="M24.5 12V19.9998H0.5L12.5 12H24.5Z" fill="#D80027"/>
<path d="M8.08938 12L6.81025 11.3984L7.49144 10.1596L6.10244 10.4253L5.92642 9.02214L4.95892 10.0541L3.99147 9.02214L3.81545 10.4253L2.4265 10.1595L3.10764 11.3983L1.82852 12L3.10764 12.6017L2.4265 13.8405L3.81555 13.5748L3.99147 14.9779L4.95892 13.9459L5.92642 14.9779L6.10244 13.5748L7.49139 13.8405L6.8102 12.6018L8.08938 12ZM1.5213 5.51285L1.94697 6.10797L2.64442 5.887L2.20998 6.47575L2.63566 7.07079L1.94148 6.8396L1.50705 7.4283L1.51253 6.69668L0.818359 6.46539L1.51586 6.24452L1.5213 5.51285ZM1.5213 16.5717L1.94697 17.1669L2.64442 16.9459L2.20998 17.5346L2.63566 18.1297L1.94148 17.8985L1.50705 18.4871L1.51253 17.7556L0.818359 17.5243L1.51586 17.3034L1.5213 16.5717ZM10.3622 11.0423L9.93653 11.6374L9.23908 11.4165L9.67352 12.0052L9.24784 12.6003L9.94202 12.3691L10.3765 12.9577L10.371 12.2261L11.0651 11.9949L10.3676 11.7739L10.3622 11.0423Z" fill="#FFDA44"/>
</g>
<defs>
<clipPath id="clip0_1029_26165">
<rect width="24" height="24" fill="white" transform="translate(0.5)"/>
</clipPath>
</defs>
</svg>
