<svg width="25" height="24" viewBox="0 0 25 24" fill="none" xmlns="http://www.w3.org/2000/svg">
<g clip-path="url(#clip0_1029_26147)">
<path d="M0.5 4.12726H24.5V19.872H0.5V4.12726Z" fill="white"/>
<path d="M11.4867 4.12726V10.7558H0.5V13.5623H11.4867V19.8728H13.712V13.5623H24.5V10.7558H13.712V4.12726H11.4867Z" fill="#BD0034"/>
<path d="M10.7443 4.12726H2.375L10.7443 9.42001V4.12726ZM0.5 9.82051H6.39875L0.5 6.08026V9.82051Z" fill="#1A237B"/>
<path d="M0.5 4.125V5.046L7.57925 9.46575H9.31775C9.31775 9.46575 2.3405 5.14425 0.683 4.125H0.5Z" fill="#BD0034"/>
<path d="M10.7443 19.8728H2.375L10.7443 14.58V19.8728ZM0.5 14.1795H6.39875L0.5 17.9198V14.1795Z" fill="#1A237B"/>
<path d="M0.5 19.875V18.954L7.57925 14.5342H9.31775C9.31775 14.5342 2.3405 18.8557 0.683 19.875H0.5Z" fill="#BD0034"/>
<path d="M14.2559 4.12726H22.6251L14.2559 9.42001V4.12726ZM24.5001 9.82051H18.6014L24.5001 6.08026V9.82051Z" fill="#1A237B"/>
<path d="M24.4999 4.125V5.046L17.4206 9.46575H15.6821C15.6821 9.46575 22.6571 5.14425 24.3169 4.12725L24.4999 4.125Z" fill="#BD0034"/>
<path d="M14.2559 19.8728H22.6251L14.2559 14.58V19.8728ZM24.5001 14.1795H18.6014L24.5001 17.9198V14.1795Z" fill="#1A237B"/>
<path d="M24.4999 19.875V18.954L17.4206 14.5342H15.6821C15.6821 14.5342 22.6571 18.8557 24.3169 19.8727L24.4999 19.875Z" fill="#BD0034"/>
</g>
<defs>
<clipPath id="clip0_1029_26147">
<rect width="24" height="24" fill="white" transform="translate(0.5)"/>
</clipPath>
</defs>
</svg>
